<?xml version="1.0" encoding="utf-8"?><svg viewBox="0 0 495 480" xmlns="http://www.w3.org/2000/svg" xmlns:xlink="http://www.w3.org/1999/xlink"><style>:root>svg{display:none}:root>svg:target{display:block}</style><svg fill="none" viewBox="0 0 407 480" id="bg1" xmlns="http://www.w3.org/2000/svg"><path d="M148.402 17.977l-38.139 61.847 73.7 41.231M148.402 17.977l35.561 103.078M148.402 17.977L174.686 2l36.078 105.14-26.801 13.915m-55.146-45.87l15.461-28.346 6.291 16.492m-21.752 11.854l34.531 21.647-12.779-33.5m-21.752 11.853l21.752-11.854M79.855 65.393l8.761 4.638m-8.761-4.638l6.7-4.123 7.73 4.123m-14.43 0v38.654l8.761 4.123m0-38.139l5.67-4.638m-5.67 4.638v38.139m5.67-42.777v38.654l-5.67 4.123" stroke="#fff" stroke-opacity=".76" stroke-width="2"/><path d="M153.555 104.047L120.57 114.87m0 0l16.493 9.793m-16.493-9.793v97.409l16.493 10.823m0-98.439l32.985-10.823 17.523 8.761v9.277m-50.508-7.215v98.439m0 0l32.985-20.1 15.977 9.277v-17.008M16.977 110.232l18.554-7.731 34.531 17.523m-53.085-9.792l36.077 19.069m-36.077-19.069v15.462l36.077 20.615m17.008-26.285l-17.008 9.277m17.008-9.277v16.493l-17.008 9.792m0-17.008v17.008" stroke="#fff" stroke-opacity=".76" stroke-width="2"/><path d="M136.547 109.717l-8.246-4.124-23.192 14.431m0 0l15.461 8.762v19.069l-15.461-8.761v-19.07zM203.548 150.432l-29.892-17.008-23.193 12.885 29.893 17.008m23.192-12.885v17.524l-23.192 13.915v-18.554m23.192-12.885l-23.192 12.885m-31.955 7.216l16.493-9.278 8.762 4.639m-25.255 4.639v10.307l9.278 4.639m-9.278-14.946l9.278 5.153m15.977-9.792v9.792l-15.977 9.793m15.977-19.585l-15.977 9.792m0 9.793v-9.793M149.948 146.309v17.523l5.154 2.577m15.461 11.339l9.277 4.638" stroke="#fff" stroke-opacity=".76" stroke-width="2"/><path d="M221.587 195.271l.049-5.928-25.819-16.749-9.792 6.185v5.154m35.562 11.338l-4.639 7.731m4.639-7.731l.515-62.693m-36.077 51.355v10.823l26.8 15.462 4.123-7.216m-30.923-19.069l30.923 19.069m18.039-87.101l-9.792-6.7-3.093 1.872m12.885 4.828l-44.324 27.316m44.324-27.316v8.762l-12.885 7.915m-31.439 10.639l-3.092-2.062v-9.277l34.531-20.805m-31.439 32.144l8.247 4.638 23.192-15.277m0-52.754l15.462-8.762 15.977 8.762m-31.439 0s12.457 9.277 15.462 9.277m-15.462-9.277v31.249m31.439-31.25s-12.885 9.278-15.977 9.278m15.977-9.277v55.147m-15.977-45.87v85.039m15.977-19.069v37.623M230.349 40.139l8.761-5.154 19.585 12.37m-28.346-7.216l21.131 11.854m-21.131-11.854v7.215l21.131 13.4m7.215-13.4l-7.215 4.639m7.215-4.639v9.277l-7.215 4.123m0-8.761v8.761M76.247 136.001l4.123-2.577 40.2 24.739m-44.323-22.162l44.323 27.831m-44.323-27.831v64.424M276.218 87.04l18.554-10.824 8.247 5.154m-26.801 5.67l8.762 5.153m-8.762-5.154v11.339l8.762 4.123m18.039-21.13L284.98 92.192m18.039-10.823v56.693l-8.247 4.123m-9.792-49.993v10.308m0 0l9.792-4.123v43.808m-9.792-39.685v33.312l9.792 6.373" stroke="#fff" stroke-opacity=".76" stroke-width="2"/><path d="M284.98 118.994l-18.554 11.338m0 0l61.847 36.593m-61.847-36.593v69.062m61.847-32.469l43.292-27.316m-43.292 27.316v76.278m43.292-103.594l-15.461-9.277-24.224 15.977-21.131-12.131m60.816 5.431v18.554l-25.254 16.493v79.37M317.45 119.509l-14.431 8.246v2.577l7.73 3.846m6.701-14.669l-11.519-10.285-2.912 1.594m14.431 8.691v10.823l-6.701 3.846M14.4 158.163l15.977-9.277 35.562 21.131M14.4 158.163l18.039 11.854-10.823 6.92M14.4 158.163l-2.061 13.916 9.277 4.858m44.323-6.92l-49.477 29.377m49.477-29.377v51.024m-49.477-21.647L1 190.117m15.462 9.277v81.432M1 190.117l20.616-13.18M1 190.117v79.886l15.462 10.823m0 0l38.654-28.862M165.925 295.257l49.477-30.408 14.431 8.762m-63.908 21.646l16.492 8.762m-16.492-8.762l-.516 71.124-47.415-25.77v17.523l64.423 37.109m47.416-121.632l-47.416 30.408m47.416-30.408c0 35.625 1.546 57.145 1.546 92.77l-48.962 28.862m0-91.224v91.224m33.501-37.109v-56.177l-15.977 8.603m15.977 47.574l-20.101 10.824v-18.039m20.101 7.215l-15.977-9.792m0-37.782l-4.124 2.22v38.139m4.124-40.359v37.782m0 0l-4.124 2.577M53.57 359.165l47.931-27.831 16.493 8.762-48.963 28.862m-15.461-9.793l15.461 9.793m-15.461-9.793v7.731m15.461 2.062v16.492m48.963-27.315L69.031 385.45m0 0l-6.184-4.638-17.008 10.307m7.73-24.223l-15.976 10.308m15.977-10.308l8.761 6.185-16.492 10.308m-8.246-6.185l8.246 6.185m-8.246-6.185v8.246l8.246 5.669m0-7.73v7.73M62.847 373.081v8.246M74.7 382.116v49.204l14.947 8.761m0 0V374.33m0 65.751l13.4-6.7v-66.485M150.463 413.797l-7.731-5.154-17.008 9.792m24.739-4.638l-15.977 9.792m15.977-9.792v9.792l-15.977 9.792m0-9.792l-8.762-5.154m8.762 5.154v9.792m-8.762-14.946v10.823l8.762 4.123M168.502 422.043l22.161-12.885 36.593 20.1 27.316-17.008 3.608 2.577m-89.678 7.216l58.754 32.985m-58.754-32.985v18.554l58.754 32.985m0-18.554l22.677-12.37m-22.677 12.37v18.554m22.677-30.924v18.554l-22.677 12.37m22.677-30.924l-6.7-4.123m10.823-13.915l-17.523 9.792 6.7 4.123m0 0l10.823-6.184M241.687 140.125l11.854-5.67 12.369 5.67m-24.223 0l24.223 13.915m-24.223-13.915v8.761l24.223 12.885M317.965 48.9l13.4-8.246 11.854 8.246m-25.254 0l13.4 7.731m-13.4-7.73v55.662l13.4 8.246m11.854-63.908l-11.854 7.73m11.854-7.73v24.223M331.365 56.63v56.178m0 0l11.854-8.246V81.885m0 0l16.492-9.792v-9.277m-16.492 19.07v-8.762m16.492-10.308l-8.246-6.185m8.246 6.185l-16.492 10.308M351.981 56.631l-8.762 5.154" stroke="#fff" stroke-opacity=".76" stroke-width="2"/><path d="M71.093 203.518l49.478-27.924v36.685l16.492 10.823 32.985-20.1 29.377 17.008-50.508 29.377-77.824-45.869zm0 0v90.193l29.893 17.523v19.585l16.492 9.277m0 0l15.977-9.277m-15.977 9.277v-36.077m15.977 26.8v-37.108m0 37.108l15.462 9.277m-15.462-46.385l-32.469-16.493m32.469 16.493l-15.977 10.308m-16.492-26.801v-18.554l47.931 27.316m-47.931-8.762l-14.431 8.762m62.362 0l17.523-9.793v-19.584l-17.523 10.307-62.362-36.077v55.147m62.362 0v54.116M86.555 285.98l30.923 18.039m31.439 36.077l15.977-7.022M32.439 427.712l7.73-5.154 20.1 12.37m-27.83-7.216l20.1 12.885m-20.1-12.885v7.216l20.1 12.369m7.73-12.369l-7.73 5.669m7.73-5.669v5.669l-7.73 6.7m0-6.7v6.7M138.094 369.988v41.747m0 19.585v39.169l15.977 8.247m0 0v-99.782m0 99.782l40.2-22.677m10.308-39.685v-34.016M231.895 178.263l-34.016 57.209-3.093 5.154m37.109-62.363l26.284 75.247m-26.284-75.247l13.4-7.73 26.8 75.762M219.01 226.71l11.338-19.585 13.401 42.778" stroke="#fff" stroke-opacity=".76" stroke-width="2"/><path d="M166.44 256.603l67.001-37.624m-67.001 37.624l15.462 9.792m-15.462-9.792v20.1l15.462 8.762m75.247-80.401l34.016-19.585 15.461 8.761m0 0l-43.292 24.739m43.292-24.739v19.07l-38.654 22.677m-24.739 11.339l-61.331 38.139m0 0v-19.07m0 0l56.177-32.985M274.156 379.781l18.039-10.823 55.147 32.985m-73.186-22.162l55.147 32.985m-55.147-32.985v15.462l55.147 34.015m18.039-27.315l-18.039 10.823m18.039-10.823v16.492l-18.039 10.823m0-16.492v16.492M254.057 417.404l19.069-11.338 55.147 34.016m-74.216-22.678l56.177 32.47m-56.177-32.47v14.947l56.177 34.015m18.039-26.284l-18.039 9.792m18.039-9.792v15.977l-18.039 10.307m0-16.492v16.492M214.887 422.043v-45.87m26.8 43.808v-59.785l27.831-13.916v-21.13m0 0l-37.623 21.13m37.623-21.13l-9.277-10.824m-31.439 54.116v60.301m2.062-98.955l15.977-8.396m13.4-7.066l-30.408-18.554m30.408 18.554l-7.215 3.805m-22.678-14.112l22.678 14.112m0 0l-6.185 3.261m-16.493-9.643l16.493 9.643M282.918 325.665v34.016l10.308-6.185m-23.193 30.408l4.639-3.608m18.039-11.338l8.761-6.185M282.918 276.187l-10.823-29.892" stroke="#fff" stroke-opacity=".76" stroke-width="2"/><path d="M243.749 249.387l10.823 29.893m0 0l1.546 32.469m-1.546-32.469l-34.531-17.523m38.139-8.247l9.792 25.77 2.062 104.109-13.916-5.67v-24.738M273.641 250.418l35.562-18.554 96.378 57.208m0 0l-19.585 9.793m19.585-9.793v15.977l-19.585 10.823m0-17.007v17.007m0-17.007L330.85 266.91m55.146 48.962l-36.077-21.578M330.85 266.91v15.978l19.069 11.406M330.85 266.91l-31.439 15.978m0 0l-16.493-6.701v48.963l16.493 10.307m0-52.569v52.569m0 0l18.039-10.602m32.469-30.561v10.755m-38.654 0l19.585-10.755 55.146 30.856m-74.731-20.101v16.493l57.724 30.923m-57.724-47.416l57.724 30.408m17.007-10.307v17.007l-17.007 10.308m17.007-27.315l-17.007 10.307m0 17.008v-17.008M293.226 341.642l18.554-10.823 55.662 33.5m-74.216-22.677v15.977l56.693 33.5m-56.693-49.477l56.693 34.016m17.523-11.339v9.793m0-9.793l-17.523 11.339m5.669 1.031l7.731-4.639 21.131 11.854m-28.862-7.215v7.215l2.577 1.582m-2.577-8.797l21.647 11.854m7.215-4.639v6.185l-7.215 5.154m7.215-11.339l-7.215 4.639m0 6.7v-6.7m0 6.7l-19.07-9.757m0 0l-8.246 5.633m0 0v-15.461M35.531 220.01l14.431-8.762 21.131 13.4m-35.562-4.638l35.562 23.708M35.531 220.01v19.069l35.562 23.193M63.362 257.633L21.1 288.041m0 0l49.478 28.347M21.1 288.041v18.039l31.439 19.07 1.03 34.015 17.009-9.792v-32.985m0 0l22.161-10.308" stroke="#fff" stroke-opacity=".76" stroke-width="2"/></svg><svg fill="none" viewBox="0 0 495 401" id="bg2" xmlns="http://www.w3.org/2000/svg"><mask id="ba" maskUnits="userSpaceOnUse" x="0" y="0" width="495" height="401"><path fill="#C4C4C4" d="M0 0h495v401H0z"/></mask><g mask="url(#ba)" stroke="#fff" stroke-width="2"><path d="M434.841 148.212L332 315.485 530.733 427m-95.892-278.788L530.733 427m-95.892-278.788L505.718 105 603 389.364 530.733 427M382.031 302.939l41.692-76.666 16.964 44.606m-58.656 32.06l93.113 58.546-34.457-90.606m-58.656 32.06l58.656-32.06" stroke-opacity=".74"/><path d="M346-1.176L388.641-19 468 21.4M346-1.176l82.913 43.964M346-1.176V34.47L428.913 82M468 21.4l-39.087 21.388M468 21.4v38.023L428.913 82m0-39.212V82M179.12 257.934l21.996-22.755 27.223 10.122m-49.219 12.633l29.978 8.345m-29.978-8.345l27.807 108.345 30.237 9.348m-8.825-130.326l-19.241 20.978m19.241-20.978l6.302 24.555m-25.543-3.577l28.066 109.348m0 0l18.983-21.98-11.329-44.141m0 0l27.251-27.311-4.634-18.057m-22.617 45.368l-4.377-17.055m26.994-28.313l-19.162-7.914-13.632 13.632m32.794-5.718l-26.994 28.313m0 0l-5.8-22.595M282.913 99.483l18.67 4.818m-18.67-4.819l10.718-10.933 16.488 4.31m-27.206 6.624l17.939 73.671 18.431 3.837m-17.7-72.69l8.536-11.443m-8.536 11.443l17.7 72.69m-9.164-84.133l17.938 73.672-8.774 10.461M134.324 80.61L51.422 27.668l.396-33.142 85.367 53.731m-2.861 32.355l2.861-32.355m-2.861 32.355l12.193-6.292m-9.332-26.063l26.011-13.422m-82.928-54.99l82.928 54.99m0 0l-2.283 13.529m0 0l30.099 18.434m-30.099-18.434l-11.773 7.104m-2.623 18.852l29.26 16.809m-29.26-16.809l2.623-18.852m26.637 35.661l3.042-18.039m-3.042 18.039l13.005-6.711 2.23-17.62m-12.193 6.292l12.193-6.291m-12.193 6.291L149.14 55.467M75 352.625L51.562 337 0 366.688m75-14.063l-48.438 29.687M75 352.625v29.687L26.562 412m0-29.688L0 366.688m26.563 15.624V412M0 366.688V399.5L26.563 412" stroke-opacity=".76"/></g></svg><svg fill="none" viewBox="0 0 29 29" id="email_circle" xmlns="http://www.w3.org/2000/svg"><circle cx="14.5" cy="14.5" r="14" stroke="#005EA3"/><path d="M22 19.155v-9.31L17.173 14.5 22 19.155zM15 16.596l-1.378-1.33-4.827 4.656h12.41l-4.827-4.656L15 16.596zM21.205 9.078H8.795L15 15.063l6.205-5.985zM8 9.845v9.31l4.827-4.655L8 9.845z" fill="#005DA0"/></svg><svg fill="none" viewBox="0 0 22 22" id="input_email" xmlns="http://www.w3.org/2000/svg"><g clip-path="url(#dclip0)"><path d="M11 22c-1.012 0-1.987-.132-2.926-.396a11.157 11.157 0 0 1-2.629-1.111 10.97 10.97 0 0 1-2.222-1.716 10.966 10.966 0 0 1-1.716-2.222 11.155 11.155 0 0 1-1.111-2.629A10.756 10.756 0 0 1 0 11c0-1.012.132-1.987.396-2.926.264-.939.634-1.815 1.111-2.629a10.967 10.967 0 0 1 1.716-2.222 10.967 10.967 0 0 1 2.222-1.716C6.259 1.03 7.135.66 8.074.396A10.756 10.756 0 0 1 11 0c1.51 0 2.937.29 4.279.869a11.13 11.13 0 0 1 3.498 2.354 11.13 11.13 0 0 1 2.354 3.498C21.711 8.063 22 9.489 22 11c0 1.012-.132 1.987-.396 2.926a11.16 11.16 0 0 1-1.111 2.629 10.969 10.969 0 0 1-1.716 2.222 10.965 10.965 0 0 1-2.222 1.716c-.814.477-1.69.847-2.63 1.111-.938.264-1.913.396-2.925.396zm5.302-15.532H5.874a.381.381 0 0 0-.264.099.351.351 0 0 0-.11.275v1.166c0 .059.022.088.066.088l5.478 3.124.044.022c.03 0 .051-.007.066-.022l5.302-3.124a.168.168 0 0 1 .066-.022.169.169 0 0 0 .066-.022c.059 0 .088-.03.088-.088V6.842a.35.35 0 0 0-.11-.275.381.381 0 0 0-.264-.099zm-7.48 4.686c.015-.015.022-.037.022-.066 0-.044-.015-.066-.044-.066L5.654 9.218c-.044-.015-.08-.015-.11 0-.03 0-.044.022-.044.066v4.73c0 .044.022.073.066.088h.044c.03 0 .044-.007.044-.022l3.168-2.926zm3.828.352c-.015-.044-.051-.051-.11-.022l-1.21.704a.437.437 0 0 1-.462 0l-1.056-.594c-.044-.03-.08-.03-.11 0l-4.026 3.74c-.015.015-.022.044-.022.088 0 .015.015.037.044.066.088.03.147.044.176.044h10.318c.03 0 .059-.015.088-.044 0-.059-.007-.095-.022-.11l-3.608-3.872zm3.96-2.376h-.088l-2.992 1.782c-.03 0-.044.022-.044.066-.015.015-.007.037.022.066l2.992 3.234c.03.03.051.044.066.044h.044c.044-.044.066-.073.066-.088V9.218c0-.03-.022-.059-.066-.088z" fill="#004C83" fill-opacity=".8"/></g><defs><clipPath id="dclip0"><path fill="#fff" d="M0 0h22v22H0z"/></clipPath></defs></svg><svg fill="none" viewBox="0 0 22 22" id="input_name" xmlns="http://www.w3.org/2000/svg"><g clip-path="url(#eclip0)"><path d="M11.002 0c-6.075 0-11 4.925-11 11s4.925 11 11 11 11-4.925 11-11-4.925-11-11-11zm.033 16.19H6.27c0-3.437 3.018-3.436 3.688-4.335l.077-.41c-.941-.476-1.605-1.626-1.605-2.97 0-1.771 1.152-3.208 2.573-3.208 1.42 0 2.573 1.437 2.573 3.208 0 1.333-.652 2.475-1.58 2.96l.087.465c.734.855 3.652.91 3.652 4.29h-4.699z" fill="#004C83" fill-opacity=".8"/></g><defs><clipPath id="eclip0"><path fill="#fff" d="M0 0h22v22H0z"/></clipPath></defs></svg><svg fill="none" viewBox="0 0 22 22" id="input_phone" xmlns="http://www.w3.org/2000/svg"><path d="M11 0C4.925 0 0 4.925 0 11s4.925 11 11 11 11-4.925 11-11S17.075 0 11 0zm5.809 16.05l-.881.881c-.157.157-.618.255-.633.255a10.394 10.394 0 0 1-7.44-3.041 10.407 10.407 0 0 1-3.043-7.466c0-.001.101-.449.258-.604l.881-.881c.322-.324.941-.47 1.375-.325l.185.062c.433.145.887.623 1.006 1.063L8.96 7.62c.12.442-.041 1.07-.364 1.393l-.588.588a6.247 6.247 0 0 0 4.393 4.394l.588-.589c.323-.323.952-.484 1.392-.365l1.626.444c.44.122.919.573 1.064 1.005l.061.188c.144.432-.001 1.051-.323 1.372z" fill="#004C83" fill-opacity=".8"/></svg><svg fill="none" viewBox="0 0 29 29" id="phone_circle" xmlns="http://www.w3.org/2000/svg"><g clip-path="url(#gclip0)"><path d="M9.8 13.5c1.089 2.333 2.956 4.25 5.133 5.5l1.711-1.833c.234-.25.545-.334.778-.167.856.333 1.79.5 2.8.5.467 0 .778.333.778.833v2.834c0 .5-.311.833-.778.833C12.912 22 7 15.667 7 7.833c0-.5.311-.833.778-.833H10.5c.467 0 .778.333.778.833 0 1 .155 2 .466 3 .078.25 0 .584-.155.834L9.8 13.5z" fill="#005EA3"/></g><circle cx="14.5" cy="14.5" r="14" stroke="#005EA3"/><defs><clipPath id="gclip0"><path fill="#fff" transform="translate(7 7)" d="M0 0h15v15H0z"/></clipPath></defs></svg><svg fill="none" viewBox="0 0 82 84" id="spec1" xmlns="http://www.w3.org/2000/svg"><path d="M81 41.594c0 22.433-17.922 40.594-40 40.594S1 64.028 1 41.594C1 19.161 18.922 1 41 1s40 18.161 40 40.594z" stroke="#004C83" stroke-width="2"/><g clip-path="url(#hclip0)"><path d="M57.467 54.325v-2.597c0-1.399-1.134-2.533-2.533-2.533h-4.292l-5.896-3.489 4.18-2.47a1.904 1.904 0 0 0 .014-3.275l-4.317-2.695 5.205-3.271h1.305a1.9 1.9 0 0 0 1.9-1.9V23.86c0-.7-.567-1.267-1.266-1.267H30.233c-.7 0-1.267.567-1.267 1.267v8.233c0 1.05.851 1.9 1.9 1.9h1.306l5.205 3.272-4.307 2.687a1.905 1.905 0 0 0 0 3.283l4.184 2.47-5.895 3.489h-4.293a2.533 2.533 0 0 0-2.533 2.533v2.597a3.167 3.167 0 1 0 3.737 3.737h25.46a3.167 3.167 0 1 0 3.737-3.737zm-9.31-5.13H45.65l-3.404-2.012 1.256-.742 4.655 2.754zm-4.995 0H38.84L41 47.917l2.162 1.278zm.267-12.674l-1.235-.772 2.813-1.755h2.442l-4.02 2.527zM41 35.002l-1.615-1.008h3.23L41 35.003zm8.233-11.141h2.534v5.7h-2.534v-5.7zm-3.8 0h2.534v5.7h-2.534v-5.7zm-3.8 0h2.534v5.7h-2.534v-5.7zm-3.8 0h2.534v5.7h-2.534v-5.7zm-3.8 0h2.534v5.7h-2.534v-5.7zm-3.8 0h2.534v5.7h-2.534v-5.7zm.633 8.867a.633.633 0 0 1-.633-.634v-1.266h21.534v1.266c0 .35-.284.634-.633.634H30.866zm2.85 9.417a.642.642 0 0 1-.316-.55.65.65 0 0 1 .33-.559l4.839-3.02 1.24.78-3.598 2.262a.633.633 0 0 0 .014 1.081l3.53 2.09-1.255.743-4.783-2.827zM41 39.544l3.237 2.035L41 43.495l-3.236-1.916L41 39.544zm.3 5.243l.02-.011 4.455-2.635a.633.633 0 0 0 .015-1.081l-11.237-7.066h2.44l11.29 7.05a.637.637 0 0 1 0 1.1l-11.933 7.05h-2.507l7.458-4.407zM25.167 59.328a1.9 1.9 0 1 1 0-3.8 1.9 1.9 0 0 1 0 3.8zM50.5 56.795h-19v-3.167h19v3.167zm3.23 0h-1.963v-3.167c0-.7-.567-1.267-1.267-1.267h-19c-.7 0-1.267.568-1.267 1.267v3.167H28.27a3.177 3.177 0 0 0-2.47-2.47v-2.597c0-.7.567-1.267 1.266-1.267h27.868c.7 0 1.266.568 1.266 1.267v2.597a3.177 3.177 0 0 0-2.47 2.47zm3.104 2.533a1.9 1.9 0 1 1 0-3.8 1.9 1.9 0 0 1 0 3.8z" fill="#004C83"/></g><defs><clipPath id="hclip0"><path fill="#fff" transform="translate(22 22.594)" d="M0 0h38v38H0z"/></clipPath></defs></svg><svg fill="none" viewBox="0 0 82 84" id="spec10" xmlns="http://www.w3.org/2000/svg"><path d="M81 41.594c0 22.433-17.922 40.594-40 40.594S1 64.028 1 41.594C1 19.161 18.922 1 41 1s40 18.161 40 40.594z" stroke="#004C83" stroke-width="2"/><g clip-path="url(#iclip0)" fill="#004C83"><path d="M41.972 34.865a.86.86 0 0 0 1.216 1.216l.71-.71a.86.86 0 0 0 .171-.971 7.381 7.381 0 0 1-.714-3.13 7.48 7.48 0 0 1 2.522-5.59l.003 5.628a.86.86 0 0 0 .37.706l4.08 2.825a.86.86 0 0 0 .978 0l4.08-2.823a.86.86 0 0 0 .371-.707V25.68a7.475 7.475 0 0 1 2.522 5.585 7.416 7.416 0 0 1-2.186 5.279 7.406 7.406 0 0 1-5.273 2.184h-.006c-.685 0-2.03-.332-2.49-.46a.86.86 0 0 0-.839.22l-2.613 2.614a.86.86 0 0 0 1.215 1.216l2.266-2.266c.632.156 1.718.395 2.46.395h.007c2.451 0 4.755-.954 6.488-2.688A9.124 9.124 0 0 0 60 31.266a9.202 9.202 0 0 0-4.68-7.996.86.86 0 0 0-1.281.748v6.84l-3.22 2.228-3.22-2.23-.003-6.84a.86.86 0 0 0-1.283-.748 9.207 9.207 0 0 0-4.677 8.002 8.98 8.98 0 0 0 .635 3.296l-.299.299zM39.696 46.281L27.769 58.208a2.358 2.358 0 0 1-1.677.696h-.002c-.633 0-1.229-.247-1.677-.695a2.357 2.357 0 0 1-.694-1.68c.001-.633.248-1.228.697-1.675l10.258-10.259a.86.86 0 0 0-1.216-1.215L23.2 53.638A4.058 4.058 0 0 0 22 56.527a4.066 4.066 0 0 0 1.197 2.897 4.065 4.065 0 0 0 2.893 1.2h.003c1.092-.001 2.12-.427 2.892-1.2l11.926-11.927a.86.86 0 1 0-1.215-1.216z"/><path d="M26.078 55.485a1.06 1.06 0 0 0-.75 1.804l.003.003a1.06 1.06 0 0 0 1.498-.002 1.06 1.06 0 0 0-.75-1.805zM54.187 51.127a.863.863 0 0 0-.315-.2l-2.466-.895-8.905-8.906 1.439-1.439a.86.86 0 0 0-.942-1.4l-13.47-13.47a4.292 4.292 0 0 0-3.056-1.269h-.005a4.3 4.3 0 0 0-3.058 1.266 4.298 4.298 0 0 0-1.268 3.062 4.3 4.3 0 0 0 1.268 3.058l13.47 13.47a.86.86 0 0 0 1.401.943l1.44-1.44 8.905 8.907.894 2.465a.859.859 0 0 0 .2.315l4.997 4.997a.857.857 0 0 0 1.216 0l3.252-3.252a.86.86 0 0 0 0-1.215l-4.997-4.998zm-13.51-10.609l-.006.006-2.62 2.62-13.426-13.426a2.591 2.591 0 0 1-.765-1.843c0-.697.271-1.352.764-1.845a2.59 2.59 0 0 1 1.843-.762h.003c.696 0 1.349.272 1.84.765l13.427 13.425-1.055 1.055-.005.005zm14.647 18.25l-4.254-4.255-.894-2.465a.859.859 0 0 0-.2-.315l-9.041-9.041.35-.35 9.04 9.041c.09.09.197.158.316.2l2.465.895 4.254 4.253-2.036 2.036z"/><path d="M27.07 27.262a.86.86 0 0 0-1.215 1.216l11.86 11.86a.857.857 0 0 0 1.216 0 .86.86 0 0 0 0-1.216l-11.86-11.86z"/></g><defs><clipPath id="iclip0"><path fill="#fff" transform="translate(22 23)" d="M0 0h38v38H0z"/></clipPath></defs></svg><svg fill="none" viewBox="0 0 82 84" id="spec11" xmlns="http://www.w3.org/2000/svg"><path d="M81 41.594c0 22.433-17.922 40.594-40 40.594S1 64.028 1 41.594C1 19.161 18.922 1 41 1s40 18.161 40 40.594z" stroke="#004C83" stroke-width="2"/><path d="M59.062 53.339h.05v-3.774c0-.082-.007-2.012-.68-4.023l-2.05-4.784H53.037l-2.07 4.833c-.653 1.962-.66 3.892-.66 3.973v1.258h-1.888a1.89 1.89 0 0 1-1.887-1.887v-2.62c3.003-1.743 5.032-4.986 5.032-8.702v-.09a2.514 2.514 0 0 0 1.888-2.426c0-1.13-.426-1.845-.665-2.157.022-.116.035-.235.035-.36v-1.257C52.822 25.079 47.743 20 41.5 20c-6.243 0-11.323 5.08-11.323 11.323v1.258c0 .124.014.243.036.36-.239.311-.665 1.025-.665 2.156 0 1.17.806 2.145 1.888 2.426v.09c0 3.715 2.029 6.959 5.032 8.702v2.62a1.89 1.89 0 0 1-1.887 1.887h-3.146v-.886c1.237-.75 1.887-1.958 1.887-3.517 0-1.53-1.032-3.314-3.006-3.759l-.768-.173v3.303H28.29v-3.304l-.768.174c-1.974.45-3.006 2.23-3.006 3.76 0 1.558.65 2.766 1.887 3.516v1.582C23.81 52.713 22 55.332 22 58.371V59h1.258v-.629a6.298 6.298 0 0 1 5.661-6.258V59h1.258v-6.92h1.887V59h1.258v-6.92h1.259c.256 0 .502-.039.74-.097.547 2.915 3.107 5.13 6.179 5.13 3.071 0 5.632-2.215 6.178-5.13.24.058.485.098.741.098h1.258V59h1.258v-6.92h1.888V59h1.258v-6.887c3.174.317 5.66 3.002 5.66 6.258V59H61v-.63a7.51 7.51 0 0 0-1.938-5.031zM30.526 49l-.349.173v1.648h-.629c-.652 0-1.282.092-1.887.249v-1.897l-.349-.173c-1.035-.514-1.538-1.358-1.538-2.582 0-.808.43-1.721 1.258-2.223v2.852h3.774v-2.854a2.654 2.654 0 0 1 1.258 2.225c0 1.224-.503 2.068-1.538 2.582zm21.039-14.444c.174-.114.335-.235.478-.364.083.228.15.528.15.904 0 .463-.254.865-.628 1.083v-1.623zM40.87 21.29v4.371h1.258v-4.37c5.146.32 9.249 4.516 9.418 9.7C49.31 29.8 44.61 29.437 41.5 29.437c-3.11 0-7.809.363-10.048 1.555.17-5.184 4.273-9.38 9.419-9.7zm-9.436 14.89a1.252 1.252 0 0 1-.628-1.083c0-.377.067-.676.15-.905.143.13.304.25.479.364v1.623zm.001-3.597c.123-.642 3.782-1.89 10.064-1.89 6.285 0 9.946 1.25 10.064 1.888 0 1.236-3.764 2.516-10.064 2.516-6.297 0-10.06-1.278-10.064-2.514zm1.258 5.03v-2.431c2.773 1.056 7.071 1.173 8.806 1.173 1.735 0 6.033-.117 8.806-1.173v2.43c0 4.857-3.95 8.807-8.806 8.807-4.856 0-8.806-3.95-8.806-8.806zM41.5 55.855a5.038 5.038 0 0 1-4.996-4.45 3.128 3.128 0 0 0 1.222-2.47v-1.999a9.996 9.996 0 0 0 7.548 0v2c0 1.006.484 1.893 1.222 2.469a5.038 5.038 0 0 1-4.996 4.45zm11.813-5.032h-1.748v-1.258c0-.018.006-1.806.578-3.527l1.723-4.022h.215v5.777c-.73.26-1.258.953-1.258 1.772 0 .485.189.923.49 1.258zm1.397-.63a.63.63 0 1 1 0-1.259.63.63 0 0 1 0 1.26zm3.145 2.06a7.533 7.533 0 0 0-2.156-1.089c.537-.333.898-.923.898-1.6 0-.819-.528-1.51-1.258-1.771v-5.777h.214l1.705 3.973c.587 1.761.597 3.558.597 3.576v2.687z" fill="#004C83"/><path d="M34.58 28.177h-1.258v1.259h1.259v-1.259zM37.097 27.548h-1.258v1.259h1.258v-1.259z" fill="#004C83"/></svg><svg fill="none" viewBox="0 0 82 84" id="spec12" xmlns="http://www.w3.org/2000/svg"><path d="M81 41.594c0 22.433-17.922 40.594-40 40.594S1 64.028 1 41.594C1 19.161 18.922 1 41 1s40 18.161 40 40.594z" stroke="#004C83" stroke-width="2"/><g clip-path="url(#kclip0)" fill="#004C83"><path d="M59.965 48.75l-2.34-7.237v-4.446c0-2.77-.991-5.459-2.793-7.573-1.88-2.207-4.134-4.146-6.839-5.257-2.78-1.141-5.545-1.236-8.139-1.236-2.722 0-6.329.978-9.412 2.553-2.51 1.282-4.876 3.034-6.486 5.38C22.712 32.747 22 34.897 22 37.101v8.907c0 .41.332.742.742.742h6.731v1.963L22.64 56.16a2.242 2.242 0 0 0 .015 3.15l1.037 1.036c.436.436 1.01.654 1.582.654.573 0 1.146-.218 1.583-.654L37.16 50.042H49.14c1.364 0 2.605-.945 3.333-2.13 0 0 6.587 1.78 6.59 1.782.549.148 1.08-.39.9-.945zM53.45 30.164c.084.096.169.193.253.292a10.203 10.203 0 0 1 2.438 6.61v1.286l-3.497-.945c.764-2.51.856-5.356.806-7.243zm-13.596-5.68c2.126 0 4.367.066 6.579.765l-3.25 3.676c-.988-.422-3.23-1.25-5.597-1.25-5.03 0-9.32 1.954-12.035 3.596 3.493-4.52 10.562-6.787 14.304-6.787zm-16.37 14.844h5.196v2.968h-5.196V39.33zm25.657 9.229H36.853a.742.742 0 0 0-.525.217l-10.52 10.52a.754.754 0 0 1-1.067 0l-1.036-1.035a.755.755 0 0 1 .02-1.086l7.037-7.669a.742.742 0 0 0 .195-.502v-2.252h17.218l2.774.75c-.5.612-1.184 1.057-1.807 1.057zm-.673-3.266a.74.74 0 0 0-.194-.026h-24.79v-1.484h20.04a.743.743 0 0 0 0-1.484h-1.336v-3.711a.742.742 0 0 0-.742-.743h-4.454a.742.742 0 0 0-.742.743v3.71h-6.086v-3.71a.742.742 0 0 0-.742-.743h-5.938v-.742c0-1.015.165-2.008.49-2.954 1.698-1.329 6.98-4.987 13.612-4.987 2.75 0 5.431 1.318 5.457 1.331.301.15.666.08.888-.172l3.98-4.5c1.381.634 2.684 1.527 3.962 2.715.11 1.228.396 5.72-.88 9.123a.752.752 0 0 0 .501.977l4.647 1.256v1.739c0 .077.012.154.036.228l.849 2.625-7.356-2.156a.754.754 0 0 0-.921.504.744.744 0 0 0 .504.921l8.325 2.44.553 1.712-9.663-2.612zm-10.733-2.995V39.33h2.968v2.968h-2.968z"/><path d="M46.493 42.297a.743.743 0 1 0 .001 1.486.743.743 0 0 0-.001-1.486z"/></g><defs><clipPath id="kclip0"><path fill="#fff" transform="translate(22 23)" d="M0 0h38v38H0z"/></clipPath></defs></svg><svg fill="none" viewBox="0 0 82 84" id="spec2" xmlns="http://www.w3.org/2000/svg"><path d="M81 41.594c0 22.433-17.922 40.594-40 40.594S1 64.028 1 41.594C1 19.161 18.922 1 41 1s40 18.161 40 40.594z" stroke="#004C83" stroke-width="2"/><g clip-path="url(#lclip0)" fill="#004C83"><path d="M56.69 38.304v-3.769a.765.765 0 0 0-.765-.765h-4.78V23.02a.765.765 0 0 0-.765-.765h-5.914a.765.765 0 0 0-.765.765v10.75h-6.75V23.02a.765.765 0 0 0-.766-.765h-5.914a.765.765 0 0 0-.765.765v10.75h-4.352a.765.765 0 0 0-.765.765v7.003h-2.683a.765.765 0 0 0-.765.765v6.116a.773.773 0 0 0 0 .317v5.196c0 .423.342.765.765.765h37.453a.765.765 0 0 0 .765-.765v-11.63a.765.765 0 0 0-.765-.764H56.69v-3.234zM45.23 23.785h4.385v2.574H45.23v-2.574zm0 4.133h4.385v5.852H45.23v-5.852zm-14.194-4.133h4.384v2.574h-4.384v-2.574zm0 4.133h4.384v5.852h-4.384v-5.852zm-5.117 11.397h11.522a.765.765 0 1 0 0-1.53H25.92V35.3H55.16v2.497H43.466a.765.765 0 0 0 0 1.53H55.16v2.11H25.92v-2.122zm32.475 13.852H22.47v-3.825h4.423v1.575c0 .422.342.765.765.765h5.224a.765.765 0 0 0 .765-.765v-1.575h3.407v1.575c0 .422.343.765.765.765h5.224a.765.765 0 0 0 .765-.765v-1.575h3.407v1.575c0 .422.343.765.765.765h5.224a.765.765 0 0 0 .766-.765v-1.575h4.423v3.825zm-26.276-4.431v1.416h-3.694v-3.695h3.694v2.279zm10.161 0v1.416h-3.694v-3.695h3.694v2.279zm6.467 1.416v-3.695h3.694v3.695h-3.694zm9.648-2.34H53.97v-2.12a.765.765 0 0 0-.765-.765H47.98a.766.766 0 0 0-.765.765v2.12H43.81v-2.12a.765.765 0 0 0-.765-.765H37.82a.765.765 0 0 0-.765.765v2.12h-3.407v-2.12a.765.765 0 0 0-.765-.765H27.66a.765.765 0 0 0-.765.765v2.12H22.47v-4.744h35.923v4.744zM32.751 57.727c-.394.314-.935.744-.935 1.457 0 .57.286.985.596 1.267a.644.644 0 0 0 1.032-.237l.097-.239a.633.633 0 0 0-.126-.683.344.344 0 0 1-.055-.069 3.31 3.31 0 0 1 .345-.3c.395-.315.935-.745.935-1.457 0-1.172-1.207-1.687-1.344-1.741a.765.765 0 0 0-.566 1.421c.12.048.315.187.367.28-.073.083-.24.216-.346.3zM46.946 57.727c-.395.314-.935.745-.935 1.457 0 .57.286.985.595 1.267a.644.644 0 0 0 1.032-.237l.098-.239a.633.633 0 0 0-.127-.683.39.39 0 0 1-.055-.068c.074-.084.24-.217.345-.301.395-.314.935-.745.935-1.457 0-1.172-1.206-1.687-1.344-1.741a.765.765 0 0 0-.566 1.421c.12.048.315.187.367.28-.073.083-.24.216-.345.3z"/><path d="M41.137 38.103a.765.765 0 0 0-1.419.574l.01.024a.766.766 0 0 0 1.418-.574l-.01-.024z"/></g><defs><clipPath id="lclip0"><path fill="#fff" transform="matrix(1 0 0 -1 21 61)" d="M0 0h39v39H0z"/></clipPath></defs></svg><svg fill="none" viewBox="0 0 82 84" id="spec3" xmlns="http://www.w3.org/2000/svg"><path d="M81 41.594c0 22.433-17.922 40.594-40 40.594S1 64.028 1 41.594C1 19.161 18.922 1 41 1s40 18.161 40 40.594z" stroke="#004C83" stroke-width="2"/><path d="M52.52 26.654H27.48a.807.807 0 0 0-.807.808v27.461c0 .447.361.808.808.808h25.038a.807.807 0 0 0 .808-.808V27.462a.807.807 0 0 0-.808-.808zm-.808 1.615v4.846H28.288V28.27h23.424zM28.288 54.115V34.731h23.424v19.384H28.288z" fill="#004C83"/><path d="M33.135 29.885h-2.423V31.5h2.423v-1.615zM37.173 29.885H34.75V31.5h2.423v-1.615zM41.212 29.885h-2.424V31.5h2.424v-1.615zM45.25 29.885h-2.423V31.5h2.423v-1.615zM49.288 29.885h-2.423V31.5h2.423v-1.615z" fill="#004C83"/><path d="M57.365 56.538v-34.73a.807.807 0 0 0-.807-.808H23.442a.807.807 0 0 0-.807.808v34.73a.807.807 0 0 0-.808.808v4.846c0 .447.36.808.808.808h34.73a.807.807 0 0 0 .808-.808v-4.846a.807.807 0 0 0-.808-.807zM24.25 22.615h31.5v1.616h-31.5v-1.616zm0 3.231h31.5v30.692h-31.5V25.846zm32.308 35.539H23.442v-3.231h33.116v3.23z" fill="#004C83"/></svg><svg fill="none" viewBox="0 0 82 84" id="spec4" xmlns="http://www.w3.org/2000/svg"><path d="M81 41.594c0 22.433-17.922 40.594-40 40.594S1 64.028 1 41.594C1 19.161 18.922 1 41 1s40 18.161 40 40.594z" stroke="#004C83" stroke-width="2"/><g clip-path="url(#nclip0)" fill="#004C83"><path d="M28.2 49.967h24V22.733h-24v27.234zm12.8-25.8h9.6v24.366H41V24.167zm-11.2 0h9.6v24.366h-9.6V24.167zM28.2 17v4.3H33V17h-4.8zm3.2 2.867h-1.6v-1.434h1.6v1.434zM39.4 17h-4.8v4.3h4.8V17zm-1.6 2.867h-1.6v-1.434h1.6v1.434zM41 17v4.3h4.8V17H41zm3.2 2.867h-1.6v-1.434h1.6v1.434zM52.2 17h-4.8v4.3h4.8V17zm-1.6 2.867H49v-1.434h1.6v1.434zM57.64 28.754a.87.87 0 0 0-.64-.271.87.87 0 0 0-.64.27l-2.4 2.867a.655.655 0 0 0-.075.75.814.814 0 0 0 .715.397h4.8c.303 0 .58-.154.716-.396a.656.656 0 0 0-.076-.75l-2.4-2.867zm-1.44 2.58l.8-.956.8.955h-1.6zM59.4 34.2h-4.8a.814.814 0 0 0-.715.396.655.655 0 0 0 .076.75l2.4 2.867c.15.18.387.287.64.287a.835.835 0 0 0 .64-.287l2.4-2.867a.656.656 0 0 0 .075-.75.815.815 0 0 0-.716-.396zM57 36.589l-.8-.956h1.6l-.8.956zM52.025 51.669a.84.84 0 0 0-.625-.269H29a.84.84 0 0 0-.625.269l-6.4 7.166a.657.657 0 0 0-.096.759.812.812 0 0 0 .721.406h35.2a.812.812 0 0 0 .722-.406.657.657 0 0 0-.097-.759l-6.4-7.166zm-27.76 6.898l5.12-5.734h21.631l5.12 5.734h-31.87z"/></g><defs><clipPath id="nclip0"><path fill="#fff" transform="translate(17 17)" d="M0 0h48v43H0z"/></clipPath></defs></svg><svg fill="none" viewBox="0 0 82 84" id="spec5" xmlns="http://www.w3.org/2000/svg"><path d="M81 41.594c0 22.433-17.922 40.594-40 40.594S1 64.028 1 41.594C1 19.161 18.922 1 41 1s40 18.161 40 40.594z" stroke="#004C83" stroke-width="2"/><path d="M41 41.664a6.333 6.333 0 1 0 6.333 6.333A6.34 6.34 0 0 0 41 41.664zm0 11.4a5.066 5.066 0 1 1 0-10.133 5.066 5.066 0 0 1 0 10.133zM41 41.03c.35 0 .633-.283.633-.633v-.634a.634.634 0 0 0-1.266 0v.634c0 .35.283.633.633.633z" fill="#004C83"/><path d="M46.374 41.727l-.448.448a.634.634 0 1 0 .895.895l.448-.448a.633.633 0 0 0-.895-.895zM49.233 47.363H48.6a.633.633 0 0 0 0 1.267h.633a.633.633 0 0 0 0-1.267zM46.822 52.923a.633.633 0 0 0-.896.895l.448.448a.634.634 0 0 0 .896-.895l-.449-.448zM41 54.963a.634.634 0 0 0-.633.634v.633a.634.634 0 1 0 1.266 0v-.633a.634.634 0 0 0-.633-.634zM35.178 52.923l-.447.448a.633.633 0 1 0 .895.896l.448-.448a.633.633 0 0 0-.896-.895v-.001zM33.4 47.363h-.633a.633.633 0 0 0 0 1.267h.633a.633.633 0 0 0 0-1.267zM35.178 43.07a.634.634 0 0 0 .896-.895l-.448-.447a.633.633 0 1 0-.896.895l.449.448z" fill="#004C83"/><path d="M58.1 41.03a1.9 1.9 0 0 0-1.9 1.9v.633h-5.4a10.817 10.817 0 0 0-5.367-5.366V33.43a.633.633 0 0 0-.633-.633h-1.267v-3.8h7.6a1.9 1.9 0 1 0 0-3.8H30.867a1.9 1.9 0 0 0 0 3.8h7.6v3.8H37.2a.633.633 0 0 0-.633.633v4.767a10.818 10.818 0 0 0-5.367 5.367h-5.4v-.634a1.9 1.9 0 0 0-3.8 0v10.133a1.9 1.9 0 1 0 3.8 0v-.633h5.4c2.438 5.413 8.803 7.824 14.216 5.385A10.748 10.748 0 0 0 50.8 52.43h5.4v.633a1.9 1.9 0 1 0 3.8 0V42.93a1.9 1.9 0 0 0-1.9-1.9zM30.233 27.097c0-.35.284-.634.634-.634h20.266a.633.633 0 1 1 0 1.267H30.867a.633.633 0 0 1-.634-.633zm9.5 1.9h2.534v3.8h-2.534v-3.8zm-1.9 5.066h6.334v3.644a10.756 10.756 0 0 0-6.334 0v-3.644zm-13.3 19a.633.633 0 1 1-1.266 0V42.93a.633.633 0 1 1 1.266 0v10.133zm1.267-1.9V44.83h4.91a10.754 10.754 0 0 0 0 6.334H25.8zM41 57.498a9.5 9.5 0 1 1 9.5-9.5 9.51 9.51 0 0 1-9.5 9.5zm10.29-6.333c.636-2.064.636-4.27 0-6.334h4.91v6.334h-4.91zm7.443 1.9a.633.633 0 1 1-1.266 0V42.93a.633.633 0 1 1 1.266 0v10.133z" fill="#004C83"/></svg><svg fill="none" viewBox="0 0 82 84" id="spec6" xmlns="http://www.w3.org/2000/svg"><path d="M81 41.594c0 22.433-17.922 40.594-40 40.594S1 64.028 1 41.594C1 19.161 18.922 1 41 1s40 18.161 40 40.594z" stroke="#004C83" stroke-width="2"/><path d="M58.1 22.267h-1.9a.633.633 0 0 0-.633.633v.633H52.4v-1.266a.633.633 0 0 0-.633-.634H48.6a.633.633 0 0 0-.633.634v1.266H42.9v-1.9a.633.633 0 0 0-.633-.633h-2.534a.633.633 0 0 0-.633.633v1.9h-5.067v-1.266a.633.633 0 0 0-.633-.634h-3.167a.633.633 0 0 0-.633.634v1.266h-3.167V22.9a.633.633 0 0 0-.633-.633h-1.9c-.7 0-1.267.567-1.267 1.266v3.8c0 .7.567 1.267 1.267 1.267h1.9c.35 0 .633-.284.633-.633v-.634H29.6v2.252a7.26 7.26 0 0 0-5.067 6.932v19.95c0 1.399 1.134 2.533 2.534 2.533h9.5c1.399 0 2.533-1.134 2.533-2.533v-5.7h3.8v5.7c0 1.399 1.134 2.533 2.533 2.533h9.5c1.4 0 2.534-1.134 2.534-2.533v-19.95a7.26 7.26 0 0 0-5.067-6.932v-2.252h3.167v.634c0 .35.283.633.633.633h1.9c.7 0 1.267-.567 1.267-1.267v-3.8c0-.7-.567-1.266-1.267-1.266zm-32.933 5.066H23.9v-3.8h1.267v3.8zM49.233 22.9h1.9v.633h-1.9V22.9zm0 1.9h1.9v1.267h-1.9V24.8zm-6.333 0h5.067v1.267H42.9V24.8zm-2.533-2.533h1.266v1.266h-1.266v-1.266zm0 2.533h1.266v1.267h-1.266V24.8zm-6.334 0H39.1v1.267h-5.067V24.8zm-3.166-1.9h1.9v.633h-1.9V22.9zm0 1.9h1.9v1.267h-1.9V24.8zm-4.434 1.267V24.8H29.6v1.267h-3.167zm11.4 30.4c0 .7-.567 1.266-1.266 1.266h-9.5c-.7 0-1.267-.567-1.267-1.266v-1.9h12.033v1.9zm0-3.167H25.8v-2.533h12.033V53.3zm0-3.8H25.8v-2.533h12.033V49.5zm0-3.8H25.8v-3.167h12.033V45.7zm0-4.433H25.8v-2.534h12.033v2.534zm0-3.8H25.8v-.95a5.997 5.997 0 0 1 4.584-5.838.633.633 0 0 0 .483-.615v-2.73h1.9v2.73c0 .292.199.546.482.615a5.997 5.997 0 0 1 4.584 5.838v.95zM42.9 49.5h-3.8v-2.533h3.8V49.5zm0-3.8h-3.8v-3.167h3.8V45.7zm0-4.433h-3.8v-2.534h3.8v2.534zm0-4.75v.95h-3.8v-.95a7.26 7.26 0 0 0-5.067-6.932v-2.252H47.967v2.252a7.26 7.26 0 0 0-5.067 6.932zm13.3 19.95c0 .7-.567 1.266-1.267 1.266h-9.5c-.7 0-1.266-.567-1.266-1.266v-1.9H56.2v1.9zm0-3.167H44.167v-2.533H56.2V53.3zm0-3.8H44.167v-2.533H56.2V49.5zm0-3.8H44.167v-3.167H56.2V45.7zm0-4.433H44.167v-2.534H56.2v2.534zm0-4.75v.95H44.167v-.95a5.997 5.997 0 0 1 4.584-5.838.633.633 0 0 0 .482-.615v-2.73h1.9v2.73c0 .292.2.546.483.615a5.997 5.997 0 0 1 4.584 5.838zm-.633-10.45H52.4V24.8h3.167v1.267zm2.533 1.266h-1.267v-3.8H58.1v3.8z" fill="#004C83"/><path d="M41 40.633a.633.633 0 1 0 0-1.266.633.633 0 0 0 0 1.266zM41 48.867a.633.633 0 1 0 0-1.267.633.633 0 0 0 0 1.267z" fill="#004C83"/></svg><svg fill="none" viewBox="0 0 82 84" id="spec7" xmlns="http://www.w3.org/2000/svg"><path d="M81 41.594c0 22.433-17.922 40.594-40 40.594S1 64.028 1 41.594C1 19.161 18.922 1 41 1s40 18.161 40 40.594z" stroke="#004C83" stroke-width="2"/><path d="M56.81 29.4a1.4 1.4 0 0 0 1.12-2.24l-1.05-1.4a1.406 1.406 0 0 0-1.12-.56H44.912v-1.4a1.35 1.35 0 0 0-.372-.998 1.515 1.515 0 0 0-1.028-.388V21.7a.7.7 0 1 0-1.4 0v.7h-4.2v-.7a.7.7 0 1 0-1.4 0v.713a1.52 1.52 0 0 0-1.029.39c-.255.267-.39.627-.371.997v1.4H24.26c-.44 0-.855.208-1.12.56l-1.05 1.4a1.4 1.4 0 0 0 1.12 2.24h.7v21.048c-.307.08-.579.26-.77.512l-1.05 1.4a1.4 1.4 0 0 0 1.12 2.24h2.1v4.2a1.4 1.4 0 0 0-1.4 1.4v1.4a1.4 1.4 0 0 0 1.4 1.4h4.9a1.4 1.4 0 0 0 1.4-1.4v-1.4a1.39 1.39 0 0 0-.527-1.085l.982-1.715h.945a2.1 2.1 0 0 0 2.1-2.1v-.7h9.8v.7c0 1.16.94 2.1 2.1 2.1h.942c.01.022.021.043.033.064l.95 1.654c-.33.263-.523.66-.525 1.082v1.4a1.4 1.4 0 0 0 1.4 1.4h4.9a1.4 1.4 0 0 0 1.4-1.4v-1.4a1.4 1.4 0 0 0-1.4-1.4v-4.2h2.1a1.4 1.4 0 0 0 1.12-2.24l-1.05-1.4a1.405 1.405 0 0 0-.77-.512V29.4h.7zm-20.3-5.588c.17-.014.34-.018.51-.012h5.981c.17-.005.34 0 .51.012V25.2h-7v-1.388zM24.26 26.6h31.5l1.056 1.4H23.21l1.05-1.4zm4.55 35h-3.5v-1.4h4.9v1.4h-1.4zm4.9-6.3a.7.7 0 0 1-.699.7h-.945a1.4 1.4 0 0 0-1.26.79L29.65 58.8h-2.94v-4.2h7v.7zm21 6.3h-4.9v-1.4h4.9v1.4zm-1.4-2.8h-2.94l-1.155-2.01a1.399 1.399 0 0 0-1.26-.79h-.944a.7.7 0 0 1-.7-.7v-.7h7v4.2zm3.506-5.6H23.21l1.05-1.4h31.5l1.055 1.4zm-2.105-2.8h-29.4v-21h29.4v21z" fill="#004C83"/><path d="M35.111 46.2h9.8a1.4 1.4 0 0 0 1.4-1.4v-4.9a6.323 6.323 0 0 0-1.999-4.6 6.237 6.237 0 0 0-4.73-1.685 6.42 6.42 0 0 0-5.87 6.483V44.8a1.4 1.4 0 0 0 1.4 1.4zm2.758-3.732c.052-.086.107-.17.163-.255.328-.42.52-.93.55-1.461.262.409.403.883.407 1.37a.873.873 0 0 0 1.62.446 4.891 4.891 0 0 0 .683-3.526c1.19 1.076 2.108 2.87 1.094 5.75v.008h-5.151a4.459 4.459 0 0 1 .634-2.332zm-2.758-2.37a5.017 5.017 0 0 1 4.564-5.087 4.849 4.849 0 0 1 3.68 1.31 4.92 4.92 0 0 1 1.557 3.579v4.9h-1.07a6.364 6.364 0 0 0-3.485-8.031.867.867 0 0 0-1.058.243.878.878 0 0 0 .006 1.1c.53.618.77 1.433.664 2.24a3.438 3.438 0 0 0-1.82-1.697.847.847 0 0 0-.878.128 1.223 1.223 0 0 0-.25 1.228c.022.106.05.21.078.319.039.124.066.25.083.38.017.21-.103.405-.32.733-.07.101-.132.204-.195.307a5.888 5.888 0 0 0-.842 3.05h-.714v-4.702z" fill="#004C83"/><path d="M29.51 45.5h1.4v2.1a1.4 1.4 0 0 0 1.4 1.4h15.4a1.4 1.4 0 0 0 1.4-1.4h1.4a1.4 1.4 0 0 0 1.4-1.4v-1.4a1.4 1.4 0 0 0-1.4-1.4h-1.4v-2.8h1.4a1.4 1.4 0 0 0 1.4-1.4v-1.4a1.4 1.4 0 0 0-1.4-1.4h-2.1a9.1 9.1 0 0 0-17.297 1.61 2.08 2.08 0 0 0-.902-.21 2.1 2.1 0 0 0-2.1 2.1v4.2a1.4 1.4 0 0 0 1.4 1.4zm21-.7v1.4h-1.4v-1.4h1.4zm0-7v1.4h-1.435a9.02 9.02 0 0 0-.218-1.4h1.654zm-10.5-5.6a7.709 7.709 0 0 1 7.7 7.7v7.7h-15.4v-7.7a7.709 7.709 0 0 1 7.7-7.7zm-10.5 7.7a.7.7 0 0 1 1.4 0v4.2h-1.4v-4.2z" fill="#004C83"/></svg><svg fill="none" viewBox="0 0 82 84" id="spec8" xmlns="http://www.w3.org/2000/svg"><path d="M81 41.594c0 22.433-17.922 40.594-40 40.594S1 64.028 1 41.594C1 19.161 18.922 1 41 1s40 18.161 40 40.594z" stroke="#004C83" stroke-width="2"/><g clip-path="url(#rclip0)" fill="#004C83"><path d="M57.918 37.99a.64.64 0 0 0-.352-.107h-5.994l-3.236-4.854a1.896 1.896 0 0 0-1.58-.846H28.433a1.9 1.9 0 0 0-1.9 1.9v4.189l-.833.278a.632.632 0 0 0-.327.249l-1.267 1.9a.634.634 0 0 0 1.054.703l1.147-1.72.226-.076v1.773a5.758 5.758 0 0 0-.82.67l-.027.025A5.678 5.678 0 0 0 24 46.072V46.117c0 1.479.577 2.9 1.608 3.96.004.005.01.009.014.015a5.68 5.68 0 0 0 4.078 1.725 5.682 5.682 0 0 0 3.99-1.633l.027-.025a5.679 5.679 0 0 0 1.683-3.997v-.01-.035a5.677 5.677 0 0 0-1.66-4.016 5.68 5.68 0 0 0-3.996-1.684H29.7a5.662 5.662 0 0 0-1.9.332v-1.565l.103-.034h2.882l4.737 2.961 1.145 2.861v2.411c0 .35.283.634.633.634h10.767c.35 0 .633-.284.633-.634v-1.9h1.304a5.671 5.671 0 0 0-.035.589V46.117c0 1.479.577 2.9 1.608 3.96.005.005.01.009.014.015a5.682 5.682 0 0 0 8.066.092l.027-.025a5.679 5.679 0 0 0 1.683-3.997v-.01-.035a5.66 5.66 0 0 0-.634-2.597v-2.128l.282.19a.634.634 0 0 0 .703-1.054l-3.8-2.538zm-29.314 3.836l-.104.208a.633.633 0 0 0 1.134.566l.448-.897a4.388 4.388 0 0 1 1.875.605l-.218.073a.634.634 0 1 0 .4 1.204l.95-.317c.43.51.737 1.11.902 1.755l-.208-.104a.634.634 0 0 0-.566 1.134l.897.448a4.391 4.391 0 0 1-.605 1.876l-.074-.219a.634.634 0 1 0-1.203.4l.317.95a4.42 4.42 0 0 1-1.755.902l.104-.208a.634.634 0 1 0-1.134-.566l-.444.895a4.39 4.39 0 0 1-1.875-.605l.218-.074a.633.633 0 1 0-.403-1.202l-.95.317a4.419 4.419 0 0 1-.9-1.755l.207.104a.633.633 0 1 0 .566-1.134l-.896-.445a4.39 4.39 0 0 1 .604-1.876l.074.219a.634.634 0 0 0 1.202-.403l-.317-.95a4.43 4.43 0 0 1 1.754-.901zM41.1 33.45h5.656c.211 0 .41.106.527.282l3.423 5.136a.724.724 0 0 0 .057.064l-.688.917-.805-1.615c-.008-.016-.02-.028-.03-.042-.008-.014-.004-.019-.01-.027l-2.533-3.8a.634.634 0 0 0-.53-.282H43a.633.633 0 0 0-.633.634v6.966H41.1V33.45zm6.417 4.433h-3.884V35.35h2.195l1.689 2.533zM41.1 42.95h1.267v1.267H41.1V42.95zm-10.133-5.067H27.8v-3.8c0-.35.284-.633.633-.633h2.534v4.433zm5.748 3.8l-.093-.235a.637.637 0 0 0-.254-.301l-4.143-2.59c0-.014.008-.026.008-.04V33.45h7.6v8.233h-3.117zm.507 1.267h2.611v1.267H37.73l-.507-1.267zm10.211 3.8h-9.5v-1.267h9.5v1.267zm.242-2.533h-4.042V42.95h4.676l-.634 1.267zm-4.042-2.534V39.15h4.676l.95 1.9-.317.633h-5.309zm5.458 2.534l1.416-2.832 1.676-2.235h5.194l2.102 1.401c0 .018-.01.033-.01.05v1.28a5.667 5.667 0 0 0-3.758-1.464h-.045a5.682 5.682 0 0 0-3.99 1.633l-.026.025a5.71 5.71 0 0 0-1.351 2.142h-1.208zm10.387 4.157l-.073-.218a.634.634 0 0 0-1.204.4l.317.95c-.51.429-1.11.737-1.755.9l.104-.206a.634.634 0 1 0-1.134-.566l-.447.897a4.39 4.39 0 0 1-1.875-.605l.219-.074a.634.634 0 0 0-.4-1.203l-.95.316a4.416 4.416 0 0 1-.902-1.755l.208.104a.633.633 0 1 0 .566-1.133l-.899-.444a4.39 4.39 0 0 1 .605-1.876l.073.219a.634.634 0 0 0 1.204-.4l-.317-.95a4.43 4.43 0 0 1 1.755-.902l-.104.208a.634.634 0 0 0 1.133.566l.449-.897a4.392 4.392 0 0 1 1.875.605l-.218.073a.634.634 0 0 0 .4 1.203l.95-.316c.43.51.737 1.11.902 1.755l-.208-.104a.634.634 0 1 0-.566 1.134l.897.448a4.39 4.39 0 0 1-.608 1.87h.003z"/><path d="M37.933 34.717h-3.8a.633.633 0 0 0-.633.633v3.167c0 .35.283.633.633.633h3.8c.35 0 .634-.284.634-.633V35.35a.633.633 0 0 0-.634-.633zm-.633 3.166h-2.533v-1.9H37.3v1.9zM55.666 43.583a2.533 2.533 0 1 0 0 5.067 2.533 2.533 0 0 0 0-5.067zm0 3.8a1.267 1.267 0 1 1 0-2.533 1.267 1.267 0 0 1 0 2.533zM29.7 48.65a2.533 2.533 0 1 0 0-5.066 2.533 2.533 0 0 0 0 5.066zm0-3.8a1.267 1.267 0 1 1 0 2.533 1.267 1.267 0 0 1 0-2.533z"/></g><defs><clipPath id="rclip0"><path fill="#fff" transform="translate(24 23)" d="M0 0h38v38H0z"/></clipPath></defs></svg><svg fill="none" viewBox="0 0 82 84" id="spec9" xmlns="http://www.w3.org/2000/svg"><path d="M81 41.594c0 22.433-17.922 40.594-40 40.594S1 64.028 1 41.594C1 19.161 18.922 1 41 1s40 18.161 40 40.594z" stroke="#004C83" stroke-width="2"/><g clip-path="url(#sclip0)"><path d="M59.221 41.468l-1.63-.702v-1.114a16.05 16.05 0 0 0-10.753-15.206v-1.57a.845.845 0 0 0-.845-.846h-9.039a.845.845 0 0 0-.844.845v1.58A16.05 16.05 0 0 0 25.356 39.66v1.123l-1.613.685a.844.844 0 0 0-.516.777v4.435c0 .466.379.844.845.844h1.098v1.69c0 .466.379.845.845.845h3.033a12.78 12.78 0 0 0 1.258 3.024l-2.145 2.146a.844.844 0 0 0 0 1.19l3.59 3.59a.844.844 0 0 0 1.19 0l2.146-2.145c.947.548 1.961.97 3.016 1.259v3.032c0 .466.379.845.845.845h5.068a.845.845 0 0 0 .845-.845v-3.032a12.75 12.75 0 0 0 3.024-1.259l2.146 2.146a.844.844 0 0 0 1.19 0l3.591-3.59a.844.844 0 0 0 0-1.191l-2.146-2.146c.548-.95.971-1.967 1.26-3.024h3.032a.845.845 0 0 0 .844-.845v-1.69h1.099a.845.845 0 0 0 .844-.844v-4.435a.845.845 0 0 0-.523-.777zm-21.439-17.74h7.366v14.116H37.8l-.017-14.116zm18.34 24.641h-2.814a.845.845 0 0 0-.844.667 11.104 11.104 0 0 1-1.546 3.717.845.845 0 0 0 .11 1.056l2.019 2.02-2.417 2.398-2.019-2.019a.845.845 0 0 0-1.055-.11 11.109 11.109 0 0 1-3.717 1.546.845.845 0 0 0-.668.845v2.847h-3.379v-2.872a.844.844 0 0 0-.667-.845 11.073 11.073 0 0 1-3.717-1.546.845.845 0 0 0-1.056.11l-2.019 2.019-2.39-2.39 2.019-2.02a.845.845 0 0 0 .11-1.056 11.114 11.114 0 0 1-1.571-3.7.845.845 0 0 0-.845-.667h-2.813v-.845h7.72a6.96 6.96 0 0 0 13.82 0h7.73l.008.845zm-19.835-.845h10.399a5.271 5.271 0 0 1-10.407 0h.008zm21.777-1.689H24.908v-3.033l1.63-.7a.843.843 0 0 0 .516-.778v-1.69a14.36 14.36 0 0 1 9.056-13.389v12.443c0 .467.378.845.844.845h9.056a.845.845 0 0 0 .845-.845V26.245a14.36 14.36 0 0 1 9.064 13.406v1.69c0 .339.202.645.515.777l1.63.701v3.016z" fill="#004C83"/></g><defs><clipPath id="sclip0"><path fill="#fff" transform="matrix(1 0 0 -1 21 63)" d="M0 0h41v41H0z"/></clipPath></defs></svg></svg>