<svg width="407" height="480" viewBox="0 0 407 480" fill="none" xmlns="http://www.w3.org/2000/svg">
<path d="M148.402 17.9771L110.263 79.8239L183.963 121.055M148.402 17.9771L183.963 121.055M148.402 17.9771L174.686 2L210.764 107.14L183.963 121.055M128.817 75.1854L144.278 46.8389L150.569 63.3314M128.817 75.1854L163.348 96.8318L150.569 63.3314M128.817 75.1854L150.569 63.3314" stroke="white" stroke-opacity="0.76" stroke-width="2"/>
<path d="M79.8547 65.393L88.6164 70.0315M79.8547 65.393L86.5548 61.2698L94.2857 65.393M79.8547 65.393V104.047L88.6164 108.17M88.6164 70.0315L94.2857 65.393M88.6164 70.0315V108.17M94.2857 65.393V104.047L88.6164 108.17" stroke="white" stroke-opacity="0.76" stroke-width="2"/>
<path d="M153.555 104.047L120.57 114.87M120.57 114.87L137.063 124.663M120.57 114.87V212.279L137.063 223.102M137.063 124.663L170.048 113.84L187.571 122.601V131.878M137.063 124.663V223.102M137.063 223.102L170.048 203.002L186.025 212.279V195.271" stroke="white" stroke-opacity="0.76" stroke-width="2"/>
<path d="M16.9771 110.232L35.5311 102.501L70.0622 120.024M16.9771 110.232L53.0543 129.301M16.9771 110.232V125.694L53.0543 146.309M70.0622 120.024L53.0543 129.301M70.0622 120.024V136.517L53.0543 146.309M53.0543 129.301V146.309" stroke="white" stroke-opacity="0.76" stroke-width="2"/>
<path d="M136.547 109.717L128.301 105.593L105.109 120.024M105.109 120.024L120.57 128.786V147.855L105.109 139.094V120.024Z" stroke="white" stroke-opacity="0.76" stroke-width="2"/>
<path d="M203.548 150.432L173.656 133.424L150.463 146.309L180.356 163.317M203.548 150.432V167.956L180.356 181.871V163.317M203.548 150.432L180.356 163.317M148.401 170.533L164.894 161.255L173.656 165.894M148.401 170.533V180.84L157.679 185.479M148.401 170.533L157.679 175.686M173.656 165.894V175.686L157.679 185.479M173.656 165.894L157.679 175.686M157.679 185.479V175.686" stroke="white" stroke-opacity="0.76" stroke-width="2"/>
<path d="M149.948 146.309V163.832L155.102 166.409M170.563 177.748L179.84 182.386" stroke="white" stroke-opacity="0.76" stroke-width="2"/>
<path d="M221.587 195.271L221.636 189.343L195.817 172.594L186.025 178.779V183.933M221.587 195.271L216.948 203.002M221.587 195.271L222.102 132.578M186.025 183.933V194.756L212.825 210.218L216.948 203.002M186.025 183.933L216.948 203.002M234.987 115.901L225.195 109.201L222.102 111.073M234.987 115.901L190.663 143.217M234.987 115.901V124.663L222.102 132.578M190.663 143.217L187.571 141.155V131.878L222.102 111.073M190.663 143.217L198.91 147.855L222.102 132.578M222.102 79.8239L237.564 71.0623L253.541 79.8239M222.102 79.8239C222.102 79.8239 234.559 89.1009 237.564 89.1009M222.102 79.8239V111.073M253.541 79.8239C253.541 79.8239 240.656 89.1009 237.564 89.1009M253.541 79.8239V134.971M237.564 89.1009V174.14M253.541 155.071V192.694" stroke="white" stroke-opacity="0.76" stroke-width="2"/>
<path d="M230.349 40.1389L239.11 34.985L258.695 47.3543M230.349 40.1389L251.48 51.9928M230.349 40.1389V47.3543L251.48 60.7545M258.695 47.3543L251.48 51.9928M258.695 47.3543V56.6313L251.48 60.7545M251.48 51.9928V60.7545" stroke="white" stroke-opacity="0.76" stroke-width="2"/>
<path d="M76.2469 136.001L80.3701 133.424L120.57 158.163M76.2469 136.001L120.57 163.832M76.2469 136.001V200.425" stroke="white" stroke-opacity="0.76" stroke-width="2"/>
<path d="M276.218 87.0393L294.772 76.2162L303.019 81.3701M276.218 87.0393L284.98 92.1932M276.218 87.0393V98.3779L284.98 102.501M303.019 81.3701L284.98 92.1932M303.019 81.3701V138.063L294.772 142.186M284.98 92.1932V102.501M284.98 102.501L294.772 98.3779V142.186M284.98 102.501V135.813L294.772 142.186" stroke="white" stroke-opacity="0.76" stroke-width="2"/>
<path d="M284.98 118.994L266.426 130.332M266.426 130.332L328.273 166.925M266.426 130.332V199.394M328.273 166.925L371.565 139.609M328.273 166.925V243.203M371.565 139.609L356.104 130.332L331.88 146.309L310.749 134.178M371.565 139.609V158.163L346.311 174.656V254.026M317.45 119.509L303.019 127.755V130.332L310.749 134.178M317.45 119.509L305.931 109.224L303.019 110.818M317.45 119.509V130.332L310.749 134.178" stroke="white" stroke-opacity="0.76" stroke-width="2"/>
<path d="M14.4001 158.163L30.3772 148.886L65.9391 170.017M14.4001 158.163L32.4388 170.017L21.6156 176.937M14.4001 158.163L12.3386 172.079L21.6156 176.937M65.9391 170.017L16.4617 199.394M65.9391 170.017V221.041M16.4617 199.394L1 190.117M16.4617 199.394V280.826M1 190.117L21.6156 176.937M1 190.117V270.003L16.4617 280.826M16.4617 280.826L55.1159 251.964" stroke="white" stroke-opacity="0.76" stroke-width="2"/>
<path d="M165.925 295.257L215.402 264.849L229.833 273.611M165.925 295.257L182.417 304.019M165.925 295.257L165.409 366.381L117.994 340.611V358.134L182.417 395.243M229.833 273.611L182.417 304.019M229.833 273.611C229.833 309.236 231.379 330.756 231.379 366.381L182.417 395.243M182.417 304.019V395.243M215.918 358.134V301.957L199.941 310.56M215.918 358.134L195.817 368.958V350.919M215.918 358.134L199.941 348.342M199.941 310.56L195.817 312.78V350.919M199.941 310.56V348.342M199.941 348.342L195.817 350.919" stroke="white" stroke-opacity="0.76" stroke-width="2"/>
<path d="M53.5698 359.165L101.501 331.334L117.994 340.096L69.0315 368.958M53.5698 359.165L69.0315 368.958M53.5698 359.165V366.896M69.0315 368.958V385.45M117.994 358.135L69.0315 385.45M69.0315 385.45L62.8468 380.812L45.839 391.119M53.5698 366.896L37.5927 377.204M53.5698 366.896L62.3314 373.081L45.839 383.389M37.5927 377.204L45.839 383.389M37.5927 377.204V385.45L45.839 391.119M45.839 383.389V391.119" stroke="white" stroke-opacity="0.76" stroke-width="2"/>
<path d="M62.847 373.081V381.327" stroke="white" stroke-opacity="0.76" stroke-width="2"/>
<path d="M74.7007 382.116V431.32L89.647 440.081M89.647 440.081V374.33M89.647 440.081L103.047 433.381V366.896" stroke="white" stroke-opacity="0.76" stroke-width="2"/>
<path d="M150.463 413.797L142.732 408.643L125.724 418.435M150.463 413.797L134.486 423.589M150.463 413.797V423.589L134.486 433.381M134.486 423.589L125.724 418.435M134.486 423.589V433.381M125.724 418.435V429.258L134.486 433.381" stroke="white" stroke-opacity="0.76" stroke-width="2"/>
<path d="M168.502 422.043L190.663 409.158L227.256 429.258L254.572 412.25L258.18 414.827M168.502 422.043L227.256 455.028M168.502 422.043V440.597L227.256 473.582M227.256 455.028L249.933 442.658M227.256 455.028V473.582M249.933 442.658V461.212L227.256 473.582M249.933 442.658L243.233 438.535M254.056 424.62L236.533 434.412L243.233 438.535M243.233 438.535L254.056 432.351" stroke="white" stroke-opacity="0.76" stroke-width="2"/>
<path d="M241.687 140.125L253.541 134.455L265.91 140.125M241.687 140.125L265.91 154.04M241.687 140.125V148.886L265.91 161.771" stroke="white" stroke-opacity="0.76" stroke-width="2"/>
<path d="M317.965 48.9005L331.365 40.6543L343.219 48.9005M317.965 48.9005L331.365 56.6313M317.965 48.9005V104.563L331.365 112.809M343.219 48.9005L331.365 56.6313M343.219 48.9005C343.219 58.5676 343.219 65.0474 343.219 73.1238M331.365 56.6313V112.809M331.365 112.809L343.219 104.563V81.8855M343.219 81.8855L359.711 72.093V62.816M343.219 81.8855C343.219 78.6712 343.219 75.8092 343.219 73.1238M359.711 62.816L351.465 56.6313M359.711 62.816L343.219 73.1238" stroke="white" stroke-opacity="0.76" stroke-width="2"/>
<path d="M351.981 56.6313L343.219 61.7852" stroke="white" stroke-opacity="0.76" stroke-width="2"/>
<path d="M71.0931 203.518L120.571 175.594V212.279L137.063 223.102L170.048 203.002L199.425 220.01L148.917 249.387L71.0931 203.518ZM71.0931 203.518V293.711L100.986 311.234V330.819L117.478 340.096M117.478 340.096L133.455 330.819M117.478 340.096V304.019M133.455 330.819V293.711M133.455 330.819L148.917 340.096M133.455 293.711L100.986 277.218M133.455 293.711L117.478 304.019M100.986 277.218V258.664L148.917 285.98M100.986 277.218L86.5548 285.98M148.917 285.98L166.44 276.187V256.603L148.917 266.91L86.5548 230.833V285.98M148.917 285.98V340.096M86.5548 285.98L117.478 304.019M148.917 340.096L164.894 333.074" stroke="white" stroke-opacity="0.76" stroke-width="2"/>
<path d="M32.4388 427.712L40.1697 422.558L60.2699 434.928M32.4388 427.712L52.5391 440.597M32.4388 427.712V434.928L52.5391 447.297M60.2699 434.928L52.5391 440.597M60.2699 434.928V440.597L52.5391 447.297M52.5391 440.597V447.297" stroke="white" stroke-opacity="0.76" stroke-width="2"/>
<path d="M138.094 369.988V411.735M138.094 431.32V470.489L154.071 478.736M154.071 478.736V378.954M154.071 478.736L194.271 456.059M204.579 416.374V382.358" stroke="white" stroke-opacity="0.76" stroke-width="2"/>
<path d="M231.895 178.263L197.879 235.472L194.786 240.626M231.895 178.263L258.179 253.51M231.895 178.263L245.295 170.533L272.095 246.295M219.01 226.71L230.348 207.125L243.749 249.903" stroke="white" stroke-opacity="0.76" stroke-width="2"/>
<path d="M166.44 256.603L233.441 218.979M166.44 256.603L181.902 266.395M166.44 256.603V276.703L181.902 285.465M257.149 205.064L291.165 185.479L306.626 194.24M306.626 194.24L263.334 218.979M306.626 194.24V213.31L267.972 235.987M243.233 247.326L181.902 285.465M181.902 285.465V266.395M181.902 266.395L238.079 233.41" stroke="white" stroke-opacity="0.76" stroke-width="2"/>
<path d="M274.156 379.781L292.195 368.958L347.342 401.943M274.156 379.781L329.303 412.766M274.156 379.781V395.243L329.303 429.258M347.342 401.943L329.303 412.766M347.342 401.943V418.435L329.303 429.258M329.303 412.766V429.258" stroke="white" stroke-opacity="0.76" stroke-width="2"/>
<path d="M254.057 417.404L273.126 406.066L328.273 440.082M254.057 417.404L310.234 449.874M254.057 417.404V432.351L310.234 466.366M328.273 440.082L310.234 449.874M328.273 440.082V456.059L310.234 466.366M310.234 449.874V466.366" stroke="white" stroke-opacity="0.76" stroke-width="2"/>
<path d="M214.887 422.043V376.173M241.687 419.981V360.196L269.518 346.28V325.15M269.518 325.15L231.895 346.28M269.518 325.15L260.241 314.326M228.802 368.442V428.743M230.864 329.788L246.841 321.392M260.241 314.326L229.833 295.772M260.241 314.326L253.026 318.131M230.348 304.019L253.026 318.131M253.026 318.131L246.841 321.392M230.348 311.749L246.841 321.392" stroke="white" stroke-opacity="0.76" stroke-width="2"/>
<path d="M282.918 325.665V359.681L293.226 353.496M270.033 383.904L274.672 380.296M292.711 368.958L301.472 362.773" stroke="white" stroke-opacity="0.76" stroke-width="2"/>
<path d="M282.918 276.187L272.095 246.295" stroke="white" stroke-opacity="0.76" stroke-width="2"/>
<path d="M243.749 249.387L254.572 279.28M254.572 279.28L256.118 311.749M254.572 279.28L220.041 261.757M258.18 253.51L267.972 279.28L270.034 383.389L256.118 377.719V352.981" stroke="white" stroke-opacity="0.76" stroke-width="2"/>
<path d="M273.641 250.418L309.203 231.864L405.581 289.072M405.581 289.072L385.996 298.865M405.581 289.072V305.049L385.996 315.872M385.996 298.865V315.872M385.996 298.865L330.85 266.91M385.996 315.872L349.919 294.294M330.85 266.91V282.888L349.919 294.294M330.85 266.91L299.411 282.888M299.411 282.888L282.918 276.187V325.15L299.411 335.457M299.411 282.888V335.457M299.411 335.457L317.45 324.855M349.919 294.294V305.049M311.265 305.049L330.85 294.294L385.996 325.15M311.265 305.049V321.542L368.989 352.465M311.265 305.049L368.989 335.457M385.996 325.15V342.157L368.989 352.465M385.996 325.15L368.989 335.457M368.989 352.465V335.457" stroke="white" stroke-opacity="0.76" stroke-width="2"/>
<path d="M293.226 341.642L311.78 330.819L367.442 364.319M293.226 341.642V357.619L349.919 391.119M293.226 341.642L349.919 375.658M367.442 364.319V374.112M367.442 364.319L349.919 375.658M355.588 376.689L363.319 372.05L384.45 383.904M355.588 376.689V383.904L358.165 385.486M355.588 376.689L377.235 388.543M384.45 383.904V390.089L377.235 395.243M384.45 383.904L377.235 388.543M377.235 395.243V388.543M377.235 395.243L358.165 385.486M358.165 385.486L349.919 391.119M349.919 391.119V375.658" stroke="white" stroke-opacity="0.76" stroke-width="2"/>
<path d="M35.5313 220.01L49.9622 211.248L71.0932 224.648M35.5313 220.01L71.0932 243.718M35.5313 220.01V239.079L71.0932 262.272" stroke="white" stroke-opacity="0.76" stroke-width="2"/>
<path d="M63.3621 257.633L21.1002 288.041M21.1002 288.041L70.5776 316.388M21.1002 288.041V306.08L52.5389 325.15L53.5697 359.165L70.5776 349.373V316.388M70.5776 316.388L92.7394 306.08" stroke="white" stroke-opacity="0.76" stroke-width="2"/>
</svg>
