<svg width="495" height="401" viewBox="0 0 495 401" fill="none" xmlns="http://www.w3.org/2000/svg">
<mask id="mask0" mask-type="alpha" maskUnits="userSpaceOnUse" x="0" y="0" width="495" height="401">
<rect width="495" height="401" fill="#C4C4C4"/>
</mask>
<g mask="url(#mask0)">
<path d="M434.841 148.212L332 315.485L530.733 427M434.841 148.212L530.733 427M434.841 148.212L505.718 105L603 389.364L530.733 427M382.031 302.939L423.723 226.273L440.687 270.879M382.031 302.939L475.144 361.485L440.687 270.879M382.031 302.939L440.687 270.879" stroke="white" stroke-opacity="0.74" stroke-width="2"/>
<path d="M346 -1.17647L388.641 -19L468 21.4M346 -1.17647L428.913 42.7882M346 -1.17647V34.4706L428.913 82M468 21.4L428.913 42.7882M468 21.4V59.4235L428.913 82M428.913 42.7882V82" stroke="white" stroke-opacity="0.76" stroke-width="2"/>
<path d="M179.12 257.934L201.116 235.179L228.339 245.301M179.12 257.934L209.098 266.279M179.12 257.934L206.927 366.279L237.164 375.627M228.339 245.301L209.098 266.279M228.339 245.301C230.734 254.633 232.738 262.44 234.641 269.856M209.098 266.279L237.164 375.627M237.164 375.627L256.147 353.647L244.818 309.506M244.818 309.506L272.069 282.195L267.435 264.138M244.818 309.506C243.212 303.249 241.782 297.678 240.441 292.451M267.435 264.138L248.273 256.224L234.641 269.856M267.435 264.138L240.441 292.451M240.441 292.451C238.407 284.527 236.576 277.393 234.641 269.856" stroke="white" stroke-opacity="0.76" stroke-width="2"/>
<path d="M282.913 99.4825L301.583 104.301M282.913 99.4825L293.631 88.5487L310.119 92.8583M282.913 99.4825L300.852 173.154L319.283 176.991M301.583 104.301L310.119 92.8583M301.583 104.301L319.283 176.991M310.119 92.8583L328.057 166.53L319.283 176.991" stroke="white" stroke-opacity="0.76" stroke-width="2"/>
<path d="M134.324 80.6107L51.4223 27.6668L51.8182 -5.47464L137.185 48.256M134.324 80.6107L137.185 48.256M134.324 80.6107L146.517 74.319M137.185 48.256L163.196 34.8337M80.2676 -20.1553L163.196 34.8337M163.196 34.8337L160.913 48.3628M160.913 48.3628L191.012 66.7975M160.913 48.3628L149.14 55.4673M146.517 74.319L175.777 91.128M146.517 74.319L149.14 55.4673M175.777 91.128L178.819 73.0892M175.777 91.128L188.782 84.4168L191.012 66.7975M178.819 73.0892L191.012 66.7975M178.819 73.0892L149.14 55.4673" stroke="white" stroke-opacity="0.76" stroke-width="2"/>
<path d="M75 352.625L51.5625 337L0 366.688M75 352.625L26.5625 382.312M75 352.625V382.312L26.5625 412M26.5625 382.312L0 366.688M26.5625 382.312V412M0 366.688V399.5L26.5625 412" stroke="white" stroke-opacity="0.76" stroke-width="2"/>
</g>
</svg>
