<svg width="116" height="39" viewBox="0 0 116 39" fill="none" xmlns="http://www.w3.org/2000/svg">
<path d="M47.6871 17.307V8.48633H51.4121C54.1696 8.48633 56.2014 10.1251 56.2014 12.8725C56.2014 15.6199 54.218 17.2588 51.4605 17.2588H47.6871V17.307ZM53.8794 12.9207C53.8794 11.5711 53.057 10.5107 51.4605 10.5107H50.0092V15.3307H51.4605C52.9602 15.3307 53.8794 14.2221 53.8794 12.9207Z" fill="#004C83"/>
<path d="M57.0723 12.9207C57.0723 10.2215 59.1041 8.38989 61.8132 8.38989C64.5223 8.38989 66.5057 10.2697 66.5057 12.9207C66.5057 15.5717 64.4739 17.4515 61.8132 17.4515C59.0557 17.4515 57.0723 15.5717 57.0723 12.9207ZM64.1836 12.9207C64.1836 11.4747 63.2645 10.3661 61.8132 10.3661C60.3619 10.3661 59.3943 11.4747 59.3943 12.9207C59.3943 14.3667 60.3135 15.4753 61.8132 15.4753C63.2161 15.4753 64.1836 14.3185 64.1836 12.9207Z" fill="#004C83"/>
<path d="M72.7946 17.307L71.295 14.3667H70.1339V17.307H67.8602V8.48633H72.2625C74.1976 8.48633 75.3102 9.78773 75.3102 11.4265C75.3102 12.9689 74.3911 13.7883 73.5687 14.0775L75.3586 17.307H72.7946ZM73.0365 11.4265C73.0365 10.8481 72.5528 10.5107 71.9239 10.5107H70.1339V12.3905H71.9239C72.5044 12.3905 73.0365 12.0531 73.0365 11.4265Z" fill="#004C83"/>
<path d="M76.2294 12.9207C76.2294 10.2215 78.2612 8.38989 80.9703 8.38989C83.6794 8.38989 85.6628 10.2697 85.6628 12.9207C85.6628 15.5717 83.631 17.4515 80.9703 17.4515C78.2612 17.4515 76.2294 15.5717 76.2294 12.9207ZM83.3891 12.9207C83.3891 11.4747 82.47 10.3661 81.0187 10.3661C79.5674 10.3661 78.5998 11.4747 78.5998 12.9207C78.5998 14.3667 79.519 15.4753 81.0187 15.4753C82.4216 15.4753 83.3891 14.3185 83.3891 12.9207Z" fill="#004C83"/>
<path d="M92.9677 17.307V13.7883H89.291V17.307H87.0173V8.48633H89.291V11.8121H92.9677V8.53453H95.2414V17.307H92.9677Z" fill="#004C83"/>
<path d="M96.5959 12.9207C96.5959 10.2215 98.6278 8.38989 101.337 8.38989C104.046 8.38989 106.029 10.2697 106.029 12.9207C106.029 15.5717 103.998 17.4515 101.337 17.4515C98.6278 17.4515 96.5959 15.5717 96.5959 12.9207ZM103.707 12.9207C103.707 11.4747 102.788 10.3661 101.288 10.3661C99.8372 10.3661 98.8697 11.4747 98.8697 12.9207C98.8697 14.3667 99.7888 15.4753 101.288 15.4753C102.788 15.4753 103.707 14.3185 103.707 12.9207Z" fill="#004C83"/>
<path d="M109.416 17.307L106.078 8.48633H108.642L110.819 14.8487L112.996 8.48633H115.56L112.222 17.2588H109.416V17.307Z" fill="#004C83"/>
<path d="M47.6871 30.4653V21.6929H51.4121C54.1696 21.6929 56.2014 23.3317 56.2014 26.0791C56.2014 28.8265 54.218 30.4653 51.4605 30.4653H47.6871ZM53.8794 26.0791C53.8794 24.7295 53.057 23.6691 51.4605 23.6691H50.0092V28.4891H51.4605C52.9602 28.4891 53.8794 27.3805 53.8794 26.0791Z" fill="#004C83"/>
<path d="M57.5559 30.4653V21.6929H63.99V23.6691H59.7812V25.0187H63.8933V26.9949H59.7812V28.4891H63.99V30.4653H57.5559Z" fill="#004C83"/>
<path d="M65.0059 29.2603L66.2153 27.5732C66.8442 28.1999 67.8117 28.7301 69.0211 28.7301C69.7952 28.7301 70.2789 28.4409 70.2789 28.0071C70.2789 26.802 65.2961 27.7661 65.2961 24.392C65.2961 22.8978 66.5539 21.5964 68.8276 21.5964C70.2305 21.5964 71.4883 22.0302 72.4075 22.8014L71.1497 24.4402C70.4241 23.8136 69.4565 23.5244 68.5857 23.5244C67.9085 23.5244 67.6182 23.7654 67.6182 24.151C67.6182 25.2596 72.601 24.4402 72.601 27.7179C72.601 29.5013 71.2948 30.6581 68.9244 30.6581C67.1344 30.6581 65.8766 30.0797 65.0059 29.2603Z" fill="#004C83"/>
<path d="M73.9073 30.4653V21.6929H76.1811V30.4653H73.9073Z" fill="#004C83"/>
<path d="M77.5356 26.0792C77.5356 23.2835 79.6642 21.5483 82.3249 21.5483C84.3084 21.5483 85.4694 22.6087 86.0983 23.6691L84.2116 24.6331C83.873 24.0547 83.1957 23.5245 82.3249 23.5245C80.8736 23.5245 79.8577 24.6331 79.8577 26.0792C79.8577 27.5252 80.8736 28.6338 82.3249 28.6338C82.9538 28.6338 83.6311 28.3928 83.9697 28.1036V27.4288H81.9863V25.4526H86.2434V28.9712C85.2759 30.0316 84.0181 30.7064 82.3249 30.7064C79.7126 30.6582 77.5356 28.8748 77.5356 26.0792Z" fill="#004C83"/>
<path d="M93.8385 30.4653L90.1135 25.4043V30.5135H87.8398V21.6929H90.1619L93.7418 26.5129V21.6929H96.0155V30.4653H93.8385Z" fill="#004C83"/>
<path d="M15.3231 0.485107H0.229614V38.4186H15.4199C28.1913 38.4186 36.4154 30.9476 36.4154 19.4278C36.367 7.90793 28.143 0.485107 15.3231 0.485107ZM14.9361 30.803H8.21176V8.63093H15.0329C22.9183 8.63093 28.4332 11.7157 28.4332 19.476C28.4332 25.6938 23.402 30.803 14.9361 30.803Z" fill="#004C83"/>
<path d="M16.4841 14.9451H14.7426V23.9585H16.4841C19.9189 23.9585 21.9507 21.8859 21.9507 19.3313C21.9023 16.1983 19.677 14.9451 16.4841 14.9451Z" fill="#004C83"/>
</svg>
