<svg width="22" height="22" viewBox="0 0 22 22" fill="none" xmlns="http://www.w3.org/2000/svg">
<g clip-path="url(#clip0)">
<path d="M11 22C9.988 22 9.01267 21.868 8.074 21.604C7.13533 21.3399 6.259 20.9697 5.445 20.493C4.631 20.0163 3.89033 19.4443 3.223 18.777C2.55567 18.1097 1.98367 17.369 1.507 16.555C1.03033 15.7409 0.66 14.8647 0.396 13.926C0.132 12.9873 0 12.012 0 11C0 9.988 0.132 9.01267 0.396 8.074C0.66 7.13533 1.03033 6.259 1.507 5.445C1.98367 4.631 2.55567 3.89033 3.223 3.223C3.89033 2.55567 4.631 1.98367 5.445 1.507C6.259 1.03033 7.13533 0.66 8.074 0.396C9.01267 0.132 9.988 0 11 0C12.5107 0 13.937 0.289667 15.279 0.869C16.621 1.44833 17.787 2.233 18.777 3.223C19.767 4.213 20.5517 5.379 21.131 6.721C21.7103 8.063 22 9.48933 22 11C22 12.012 21.868 12.9873 21.604 13.926C21.3399 14.8646 20.9697 15.7409 20.493 16.555C20.0163 17.369 19.4443 18.1097 18.777 18.777C18.1097 19.4443 17.369 20.0164 16.555 20.493C15.7409 20.9697 14.8647 21.34 13.9259 21.604C12.9873 21.868 12.012 22 11 22ZM16.302 6.468H5.874C5.77133 6.468 5.68333 6.501 5.61 6.567C5.53667 6.633 5.5 6.72467 5.5 6.842V8.008C5.5 8.06667 5.522 8.096 5.566 8.096L11.044 11.22L11.0881 11.242C11.1173 11.242 11.1394 11.2347 11.1541 11.22L16.4561 8.096C16.4853 8.08133 16.5074 8.074 16.5221 8.074C16.5367 8.074 16.5588 8.06667 16.5881 8.052C16.6468 8.052 16.6761 8.02267 16.6761 7.964V6.842C16.6761 6.72467 16.6394 6.633 16.566 6.567C16.4926 6.501 16.4047 6.468 16.302 6.468ZM8.822 11.154C8.83667 11.1393 8.844 11.1173 8.844 11.088C8.844 11.0439 8.82933 11.022 8.8 11.022L5.654 9.21796C5.61 9.2033 5.57333 9.2033 5.544 9.21796C5.51467 9.21796 5.5 9.23996 5.5 9.28396V14.014C5.5 14.0581 5.522 14.0873 5.566 14.102H5.61C5.63933 14.102 5.654 14.0946 5.654 14.08L8.822 11.154ZM12.65 11.506C12.6353 11.4619 12.5986 11.4547 12.5399 11.484L11.3299 12.188C11.1832 12.276 11.0293 12.276 10.8679 12.188L9.81189 11.5941C9.76789 11.5648 9.73123 11.5648 9.70189 11.5941L5.67589 15.3341C5.66123 15.3487 5.65389 15.3781 5.65389 15.422C5.65389 15.4367 5.66856 15.4587 5.69789 15.488C5.78589 15.5173 5.84456 15.5321 5.87389 15.5321H16.1919C16.2213 15.5321 16.2507 15.5174 16.2799 15.488C16.2799 15.4293 16.2726 15.3928 16.2579 15.378L12.65 11.506ZM16.61 9.13H16.5221L13.5301 10.912C13.5009 10.912 13.4861 10.934 13.4861 10.978C13.4714 10.9927 13.4788 11.0147 13.508 11.0439L16.5 14.278C16.5293 14.3073 16.5513 14.3221 16.566 14.3221H16.61C16.6541 14.278 16.6761 14.2488 16.6761 14.2341V9.21804C16.676 9.18867 16.654 9.15933 16.61 9.13Z" fill="#004C83" fill-opacity="0.8"/>
</g>
<defs>
<clipPath id="clip0">
<rect width="22" height="22" fill="white"/>
</clipPath>
</defs>
</svg>
