<svg width="22" height="22" viewBox="0 0 22 22" fill="none" xmlns="http://www.w3.org/2000/svg">
<path d="M11 0C4.92532 0 3.05176e-05 4.9253 3.05176e-05 11C3.05176e-05 17.0746 4.92532 22 11 22C17.0747 22 21.9999 17.0746 21.9999 11C21.9999 4.9253 17.0747 0 11 0ZM16.8087 16.0502L15.928 16.9311C15.7707 17.0882 15.3103 17.1861 15.2955 17.1861C12.5092 17.2104 9.82645 16.116 7.8553 14.1447C5.87875 12.167 4.78304 9.47464 4.81247 6.67896C4.81247 6.67769 4.91331 6.23044 5.07041 6.07483L5.95112 5.19399C6.2734 4.87021 6.89248 4.7239 7.32617 4.86899L7.51143 4.93079C7.94385 5.07574 8.39785 5.55386 8.51732 5.99435L8.96035 7.62037C9.07982 8.06213 8.91868 8.6906 8.59649 9.01289L8.00841 9.60105C8.58578 11.7385 10.2629 13.4159 12.4007 13.9947L12.9886 13.4064C13.3123 13.0826 13.9406 12.9216 14.3814 13.0409L16.0072 13.4855C16.4478 13.6066 16.9258 14.0578 17.0707 14.49L17.1325 14.678C17.2761 15.1104 17.131 15.7294 16.8087 16.0502Z" fill="#004C83" fill-opacity="0.8"/>
</svg>
