<svg width="22" height="22" viewBox="0 0 22 22" fill="none" xmlns="http://www.w3.org/2000/svg">
<g clip-path="url(#clip0)">
<path d="M11.0018 0C4.92684 0 0.00201416 4.92497 0.00201416 10.9999C0.00201416 17.0747 4.92684 22 11.0018 22C17.0767 22 22.0019 17.0747 22.0019 10.9999C22.0019 4.92482 17.0767 0 11.0018 0ZM11.0353 16.1894V16.1893H10.9681H6.26944C6.26944 12.7532 9.28728 12.754 9.95697 11.8555L10.0336 11.4458C9.09272 10.9689 8.42854 9.81936 8.42854 8.47485C8.42854 6.70354 9.58076 5.26737 11.0018 5.26737C12.4228 5.26737 13.575 6.70354 13.575 8.47485C13.575 9.80792 12.9226 10.9503 11.9943 11.4347L12.0815 11.9003C12.8163 12.7552 15.7337 12.8109 15.7337 16.1894H11.0353Z" fill="#004C83" fill-opacity="0.8"/>
</g>
<defs>
<clipPath id="clip0">
<rect width="22" height="22" fill="white"/>
</clipPath>
</defs>
</svg>
