<svg width="24" height="24" viewBox="0 0 24 24" fill="none" xmlns="http://www.w3.org/2000/svg">
<path d="M14.4899 8.73331H7.02026V9.56324H14.4899V8.73331Z" fill="#004C83"/>
<path d="M14.4899 10.5743H7.02026V11.4042H14.4899V10.5743Z" fill="#004C83"/>
<path d="M14.4899 12.4152H7.02026V13.2452H14.4899V12.4152Z" fill="#004C83"/>
<path d="M14.4899 6.78638H7.02026V7.61631H14.4899V6.78638Z" fill="white"/>
<path d="M12 0C5.37259 0 0 5.37259 0 12C0 18.6274 5.37259 24 12 24C18.6274 24 24 18.6274 24 12C24 5.37259 18.6275 0 12 0ZM16.1316 16.9566V18.4146C16.1316 19.2199 15.4789 19.8726 14.674 19.8726H6.83638C6.03108 19.8726 5.37835 19.2199 5.37835 18.4146V7.66119C5.37835 6.8559 6.03092 6.20316 6.83638 6.20316H14.6739C15.4792 6.20316 16.1318 6.8559 16.1315 7.66143C16.1316 7.66143 16.1316 9.11922 16.1316 9.11922V16.9566ZM17.9992 15.0891V16.5465C17.9992 17.2055 17.5619 17.762 16.9615 17.9425V16.9565V9.11898V7.66119C16.9615 6.39965 15.9353 5.37323 14.674 5.37323H7.30807C7.48879 4.77298 8.04488 4.33553 8.70409 4.33553H16.5416C17.3465 4.33553 17.9992 4.9885 17.999 5.7938V7.25166H17.9992V15.0891Z" fill="#004C83"/>
<path d="M14.4899 14.2564H7.02026V15.0864H14.4899V14.2564Z" fill="#004C83"/>
</svg>
