<svg width="29" height="29" viewBox="0 0 29 29" fill="none" xmlns="http://www.w3.org/2000/svg">
<g clip-path="url(#clip0)">
<path d="M9.8 13.5C10.8889 15.8333 12.7556 17.75 14.9333 19L16.6444 17.1667C16.8777 16.9167 17.1889 16.8334 17.4222 17C18.2778 17.3333 19.2111 17.5 20.2222 17.5C20.6889 17.5 21 17.8333 21 18.3333V21.1667C21 21.6667 20.6889 22 20.2222 22C12.9111 22 7 15.6667 7 7.83333C7 7.33333 7.31111 7 7.77778 7H10.5C10.9667 7 11.2778 7.33333 11.2778 7.83333C11.2778 8.83333 11.4333 9.83333 11.7444 10.8333C11.8222 11.0833 11.7444 11.4167 11.5889 11.6667L9.8 13.5Z" fill="#005EA3"/>
</g>
<circle cx="14.5" cy="14.5" r="14" stroke="#005EA3"/>
<defs>
<clipPath id="clip0">
<rect width="15" height="15" fill="white" transform="translate(7 7)"/>
</clipPath>
</defs>
</svg>
