<svg width="42" height="42" viewBox="0 0 42 42" fill="none" xmlns="http://www.w3.org/2000/svg">
<path d="M35.4413 5.9063L33.4834 5.89533C33.4821 5.89533 33.4809 5.89533 33.4797 5.89533C33.476 5.89533 33.4725 5.89585 33.4689 5.89585V4.5937C33.4689 4.23126 33.1751 3.93739 32.8126 3.93739H30.8439V2.62504C30.8439 2.2626 30.5501 1.96882 30.1877 1.96882H13.8504C13.7669 0.869242 12.8462 0 11.7257 0C10.6051 0 9.68454 0.869242 9.60104 1.96874H6.56247C6.20003 1.96874 5.90625 2.26252 5.90625 2.62496V36.0939C5.90625 36.4563 6.20003 36.7501 6.56247 36.7501H7.8749V38.7188C7.8749 39.0813 8.16868 39.375 8.53112 39.375H9.84364V41.3438C9.84364 41.7062 10.1374 42 10.4999 42H35.4375C35.8 42 36.0937 41.7062 36.0937 41.3438V6.56252C36.0939 6.20154 35.8024 5.90828 35.4413 5.9063ZM11.7257 1.31252C12.1216 1.31252 12.4527 1.5949 12.5283 1.96874H10.9231C10.9987 1.5949 11.3298 1.31252 11.7257 1.31252ZM7.21877 35.4377V3.28126H9.59427V8.03235C9.59427 9.20771 10.5504 10.1639 11.7257 10.1639C12.9011 10.1639 13.8572 9.20762 13.8572 8.03235V5.0819C13.8572 4.71945 13.5634 4.42568 13.2009 4.42568C12.8384 4.42568 12.5446 4.71945 12.5446 5.0819V8.03235C12.5446 8.48394 12.1772 8.85135 11.7256 8.85135C11.274 8.85135 10.9067 8.48394 10.9067 8.03235V3.28126H29.5312V35.4377H7.21877ZM9.18734 38.0627V36.7502H9.18743H30.1875C30.55 36.7502 30.8437 36.4564 30.8437 36.094V5.25H32.1563V38.0627H9.18734ZM11.1562 40.6877V39.3752H32.8126C33.175 39.3752 33.4688 39.0814 33.4688 38.719V7.20751C33.4713 7.2076 33.4736 7.20794 33.4761 7.20794L34.7813 7.21522V40.6877H11.1562Z" fill="#004C83"/>
<path d="M22.969 14.4376H13.7813C13.4189 14.4376 13.125 14.7314 13.125 15.0939C13.1251 15.4563 13.4189 15.7501 13.7813 15.7501H22.969C23.3315 15.7501 23.6252 15.4564 23.6252 15.0939C23.6252 14.7315 23.3315 14.4376 22.969 14.4376Z" fill="#004C83"/>
<path d="M22.969 17.0626H13.7813C13.4189 17.0626 13.125 17.3564 13.125 17.7189C13.1251 18.0813 13.4189 18.3751 13.7813 18.3751H22.969C23.3315 18.3751 23.6252 18.0814 23.6252 17.7189C23.6252 17.3565 23.3315 17.0626 22.969 17.0626Z" fill="#004C83"/>
<path d="M20.3438 19.6875H16.4062C16.0438 19.6875 15.75 19.9813 15.75 20.3438C15.75 20.7063 16.0438 21.0001 16.4062 21.0001H20.3438C20.7062 21.0001 21 20.7063 21 20.3438C21 19.9814 20.7063 19.6875 20.3438 19.6875Z" fill="#004C83"/>
</svg>
