<svg width="82" height="84" viewBox="0 0 82 84" fill="none" xmlns="http://www.w3.org/2000/svg">
<path d="M81 41.5942C81 64.0274 63.0779 82.1884 41 82.1884C18.9221 82.1884 1 64.0274 1 41.5942C1 19.161 18.9221 1 41 1C63.0779 1 81 19.161 81 41.5942Z" stroke="#004C83" stroke-width="2"/>
<path d="M41 41.6637C37.5022 41.6637 34.6668 44.4989 34.6668 47.9969C34.6668 51.4947 37.5022 54.3303 41 54.3303C44.4978 54.3303 47.3332 51.4947 47.3332 47.9969C47.3295 44.5007 44.4962 41.6674 41 41.6637ZM41 53.0635C38.2017 53.0635 35.9334 50.7952 35.9334 47.9969C35.9334 45.1986 38.2017 42.9303 41 42.9303C43.7983 42.9303 46.0666 45.1986 46.0666 47.9969C46.0633 50.7935 43.7969 53.0604 41 53.0635Z" fill="#004C83"/>
<path d="M41 41.03C41.3497 41.03 41.6334 40.7466 41.6334 40.3968V39.7634C41.6334 39.4139 41.3497 39.1302 41 39.1302C40.6502 39.1302 40.3666 39.4139 40.3666 39.7634V40.3968C40.3666 40.7466 40.6502 41.03 41 41.03Z" fill="#004C83"/>
<path d="M46.3739 41.7267L45.926 42.1746C45.6746 42.4177 45.6676 42.8187 45.9105 43.0701C46.1535 43.3215 46.5545 43.3285 46.8062 43.0856C46.8113 43.0808 46.8166 43.0754 46.8215 43.0701L47.2694 42.6222C47.5124 42.3706 47.5055 41.9698 47.2538 41.7267C47.0084 41.4897 46.6192 41.4897 46.3739 41.7267Z" fill="#004C83"/>
<path d="M49.2334 47.3632H48.6C48.2502 47.3632 47.9668 47.647 47.9668 47.9968C47.9668 48.3466 48.2502 48.6302 48.6 48.6302H49.2334C49.5829 48.6302 49.8666 48.3466 49.8666 47.9968C49.8666 47.647 49.5829 47.3632 49.2334 47.3632Z" fill="#004C83"/>
<path d="M46.8215 52.9226C46.5701 52.6798 46.1689 52.6868 45.926 52.9384C45.6892 53.184 45.6892 53.573 45.926 53.8184L46.3739 54.2662C46.6211 54.5135 47.0221 54.5137 47.2696 54.2665C47.5171 54.0192 47.5173 53.6182 47.2701 53.3707L46.8215 52.9226Z" fill="#004C83"/>
<path d="M41 54.9634C40.6502 54.9634 40.3666 55.2471 40.3666 55.5969V56.23C40.3666 56.58 40.6502 56.8637 41 56.8637C41.3497 56.8637 41.6334 56.58 41.6334 56.23V55.5969C41.6334 55.2471 41.3497 54.9634 41 54.9634Z" fill="#004C83"/>
<path d="M35.1784 52.9226L34.7306 53.3707C34.4831 53.618 34.4829 54.019 34.7303 54.2665C34.9776 54.5137 35.3788 54.5142 35.6261 54.2669L36.0739 53.8188C36.317 53.5674 36.31 53.1666 36.0584 52.9236C35.813 52.6865 35.4238 52.6865 35.1784 52.9236V52.9226Z" fill="#004C83"/>
<path d="M33.4 47.3632H32.7666C32.4166 47.3632 32.1332 47.647 32.1332 47.9968C32.1332 48.3466 32.4166 48.6302 32.7666 48.6302H33.4C33.7498 48.6302 34.0332 48.3466 34.0332 47.9968C34.0332 47.647 33.7498 47.3632 33.4 47.3632Z" fill="#004C83"/>
<path d="M35.1785 43.0708C35.4299 43.3136 35.8311 43.3067 36.074 43.0553C36.3108 42.8099 36.3108 42.4205 36.074 42.1753L35.6261 41.7277C35.3789 41.48 34.9778 41.48 34.7304 41.727C34.4829 41.9745 34.4827 42.3757 34.7299 42.6229L35.1785 43.0708Z" fill="#004C83"/>
<path d="M58.1 41.03C57.0507 41.03 56.2 41.8807 56.2 42.9302V43.5634H50.8001C49.7182 41.1852 47.8117 39.2787 45.4334 38.1967V33.4302C45.4334 33.0803 45.1498 32.7968 44.8 32.7968H43.5332V28.9968H51.1332C52.1827 28.9968 53.0332 28.1461 53.0332 27.0968C53.0332 26.0476 52.1827 25.1968 51.1332 25.1968H30.8666C29.8173 25.1968 28.9668 26.0476 28.9668 27.0968C28.9668 28.1461 29.8173 28.9968 30.8666 28.9968H38.4668V32.7968H37.2C36.8502 32.7968 36.5666 33.0805 36.5666 33.4302V38.1967C34.1881 39.2787 32.2818 41.1852 31.1996 43.5637H25.8V42.9302C25.8 41.881 24.9493 41.0305 23.9 41.0305C22.8507 41.0305 22 41.8807 22 42.9302V53.0634C22 54.1129 22.8507 54.9634 23.9 54.9634C24.9493 54.9634 25.8 54.1129 25.8 53.0634V52.4302H31.1999C33.6384 57.8426 40.0029 60.2536 45.4156 57.8148C47.8073 56.7373 49.7226 54.8219 50.8001 52.4302H56.2V53.0634C56.2 54.1129 57.0507 54.9634 58.1 54.9634C59.1493 54.9634 60 54.1129 60 53.0634V42.9302C60 41.8807 59.1493 41.03 58.1 41.03ZM30.2334 27.0968C30.2334 26.7471 30.5168 26.4634 30.8666 26.4634H51.1332C51.4832 26.4634 51.7666 26.7471 51.7666 27.0968C51.7666 27.4466 51.4832 27.73 51.1332 27.73H30.8666C30.5168 27.73 30.2334 27.4466 30.2334 27.0968ZM39.7334 28.9968H42.2666V32.7968H39.7334V28.9968ZM37.8332 34.0634H44.1668V37.7071C42.1035 37.0714 39.8965 37.0714 37.8332 37.7071V34.0634ZM24.5332 53.0634C24.5332 53.4134 24.2498 53.6968 23.9 53.6968C23.5502 53.6968 23.2666 53.4134 23.2666 53.0634V42.9302C23.2666 42.5803 23.5502 42.2968 23.9 42.2968C24.2498 42.2968 24.5332 42.5803 24.5332 42.9302V53.0634ZM25.8 51.1637V44.83H30.7103C30.0745 46.8933 30.0745 49.1001 30.7103 51.1637H25.8ZM41 57.4968C35.7534 57.4968 31.5 53.2434 31.5 47.9968C31.5 42.75 35.7534 38.4968 41 38.4968C46.2466 38.4968 50.5 42.75 50.5 47.9968C50.4942 53.2411 46.2442 57.491 41 57.4968ZM51.2897 51.1637C51.9255 49.1001 51.9255 46.8933 51.2897 44.83H56.2V51.1637H51.2897ZM58.7334 53.0634C58.7334 53.4134 58.4498 53.6968 58.1 53.6968C57.7502 53.6968 57.4668 53.4134 57.4668 53.0634V42.9302C57.4668 42.5803 57.7502 42.2968 58.1 42.2968C58.4498 42.2968 58.7334 42.5803 58.7334 42.9302V53.0634Z" fill="#004C83"/>
</svg>
