<svg width="82" height="84" viewBox="0 0 82 84" fill="none" xmlns="http://www.w3.org/2000/svg">
<path d="M81 41.5942C81 64.0274 63.0779 82.1884 41 82.1884C18.9221 82.1884 1 64.0274 1 41.5942C1 19.161 18.9221 1 41 1C63.0779 1 81 19.161 81 41.5942Z" stroke="#004C83" stroke-width="2"/>
<path d="M59.0619 53.3386H59.1129V49.5645C59.1129 49.4834 59.1053 47.5528 58.4328 45.5424L56.3822 40.758H54.7096H53.037L50.9674 45.5914C50.3138 47.5528 50.3063 49.4832 50.3063 49.5644V50.8224H48.4193C47.3789 50.8224 46.5321 49.9757 46.5321 48.9353V46.3154C49.5351 44.5718 51.5644 41.3285 51.5644 37.6128V37.5235C52.6462 37.2423 53.4515 36.2661 53.4515 35.0968C53.4515 33.9664 53.0256 33.2524 52.7872 32.9404C52.8086 32.824 52.8224 32.7052 52.8224 32.5806V31.3225C52.8224 25.0795 47.7431 20 41.4999 20C35.2568 20 30.1774 25.0794 30.1774 31.3225V32.5806C30.1774 32.7052 30.1913 32.824 30.2127 32.9404C29.9743 33.2524 29.5484 33.9664 29.5484 35.0968C29.5484 36.2661 30.3535 37.2424 31.4355 37.5235V37.6128C31.4355 41.3285 33.4648 44.5718 36.4677 46.3154V48.9353C36.4677 49.9757 35.621 50.8224 34.5806 50.8224H31.4354V49.9361C32.6721 49.1863 33.3225 47.9785 33.3225 46.4191C33.3225 44.8881 32.2896 43.1054 30.3157 42.6601L29.5483 42.487V45.7901H28.2902V42.4858L27.5215 42.6601C25.5482 43.1092 24.516 44.8907 24.516 46.4191C24.516 47.9785 25.1665 49.1856 26.4032 49.9361V51.5182C23.8091 52.7134 22 55.3319 22 58.371V59H23.2581V58.371C23.2581 55.115 25.7453 52.4291 28.9193 52.1128V59H30.1774V52.0807H32.0644V59H33.3225V52.0807H34.5806C34.8373 52.0807 35.0826 52.041 35.3217 51.9832C35.8683 54.8981 38.4284 57.1129 41.4999 57.1129C44.5714 57.1129 47.1316 54.898 47.6782 51.9832C47.9173 52.041 48.1626 52.0807 48.4193 52.0807H49.6774V59H50.9354V52.0807H52.8226V59H54.0807V52.1126C57.2548 52.4297 59.7419 55.115 59.7419 58.3708V58.9999H61V58.3708C60.9999 56.4365 60.2626 54.676 59.0619 53.3386ZM30.5264 49.0008L30.1773 49.1744V50.8224H29.5483C28.896 50.8224 28.2656 50.9142 27.6611 51.0709V49.1744L27.3121 49.0008C26.2774 48.487 25.7741 47.6427 25.7741 46.4193C25.7741 45.611 26.2037 44.6977 27.0322 44.1957V47.0483H30.8063V44.1944C31.6347 44.695 32.0644 45.6097 32.0644 46.4193C32.0644 47.6427 31.5611 48.4868 30.5264 49.0008ZM51.5645 34.5572C51.7394 34.4426 51.9004 34.3219 52.0432 34.193C52.1256 34.4214 52.1935 34.7207 52.1935 35.0969C52.1934 35.5604 51.9387 35.9617 51.5645 36.1801V34.5572ZM40.8709 21.2903V25.6614H42.129V21.2903C47.2751 21.6112 51.3776 25.8067 51.5474 30.9919C49.3087 29.7986 44.6099 29.4356 41.4999 29.4356C38.39 29.4356 33.6912 29.7986 31.4524 30.9912C31.6223 25.8066 35.7248 21.6103 40.8709 21.2903ZM31.4355 36.1794C31.0612 35.9617 30.8065 35.5604 30.8065 35.0969C30.8065 34.7202 30.8744 34.4207 30.9568 34.1923C31.0996 34.3219 31.2606 34.4426 31.4355 34.5565V36.1794ZM31.436 32.5826C31.5593 31.941 35.2184 30.6936 41.4999 30.6936C47.7852 30.6936 51.4455 31.9422 51.5644 32.5807C51.5645 33.8173 47.7997 35.0968 41.4999 35.0968C35.2033 35.0968 31.4392 33.8186 31.436 32.5826ZM32.6935 37.6128V35.1816C35.4668 36.2383 39.765 36.3547 41.4999 36.3547C43.2349 36.3547 47.5329 36.2383 50.3064 35.1816V37.6128C50.3064 42.4689 46.3561 46.4193 41.4999 46.4193C36.6438 46.4193 32.6935 42.4689 32.6935 37.6128ZM41.4999 55.8548C38.9227 55.8548 36.7941 53.9061 36.5042 51.405C37.2421 50.8294 37.7258 49.9419 37.7258 48.9354V46.9364C38.8926 47.4107 40.1652 47.6775 41.4999 47.6775C42.8346 47.6775 44.1073 47.4108 45.2741 46.9364V48.9354C45.2741 49.9419 45.7578 50.8294 46.4957 51.405C46.2057 53.906 44.0771 55.8548 41.4999 55.8548ZM53.3132 50.8226H51.5645V49.5645C51.5645 49.5469 51.5714 47.7591 52.1425 46.0382L53.8661 42.0161H54.0807V47.7931C53.3503 48.0534 52.8226 48.7455 52.8226 49.5645C52.8226 50.0495 53.0119 50.4878 53.3132 50.8226ZM54.7096 50.1935C54.3629 50.1935 54.0805 49.9118 54.0805 49.5645C54.0805 49.2172 54.3629 48.9354 54.7096 48.9354C55.0562 48.9354 55.3386 49.2172 55.3386 49.5645C55.3386 49.9118 55.0562 50.1935 54.7096 50.1935ZM57.8548 52.2523C57.2043 51.783 56.481 51.4087 55.6991 51.164C56.2357 50.8313 56.5967 50.2412 56.5967 49.5644C56.5967 48.7454 56.069 48.0534 55.3386 47.7929V42.016H55.5531L57.2578 45.989C57.8454 47.7503 57.8548 49.5468 57.8548 49.565V52.2523Z" fill="#004C83"/>
<path d="M34.5806 28.1774H33.3225V29.4355H34.5806V28.1774Z" fill="#004C83"/>
<path d="M37.0968 27.5484H35.8387V28.8065H37.0968V27.5484Z" fill="#004C83"/>
</svg>
