<svg width="82" height="84" viewBox="0 0 82 84" fill="none" xmlns="http://www.w3.org/2000/svg">
<path d="M81 41.5942C81 64.0274 63.0779 82.1884 41 82.1884C18.9221 82.1884 1 64.0274 1 41.5942C1 19.161 18.9221 1 41 1C63.0779 1 81 19.161 81 41.5942Z" stroke="#004C83" stroke-width="2"/>
<g clip-path="url(#clip0)">
<path d="M57.9181 37.9898C57.8139 37.9208 57.6918 37.8837 57.5665 37.8834H51.5722L48.3365 33.0295C47.9846 32.5004 47.3912 32.1828 46.7557 32.1834H28.4333C27.3841 32.1834 26.5333 33.0341 26.5333 34.0834V38.2718L25.6999 38.5498C25.5663 38.594 25.4513 38.6815 25.373 38.7987L24.1064 40.6987C23.9125 40.9897 23.991 41.3828 24.282 41.577C24.573 41.7712 24.9661 41.6926 25.1603 41.4017L26.3066 39.6823L26.5333 39.6062V41.3794C26.2399 41.5767 25.9656 41.8006 25.7132 42.0483L25.686 42.0736C24.6169 43.1306 24.0105 44.5683 24 46.0718V46.0821V46.1167C24 47.5955 24.577 49.0162 25.6081 50.0762C25.6124 50.0815 25.6177 50.0858 25.622 50.0917C26.692 51.1945 28.1633 51.817 29.7 51.8167C31.193 51.8179 32.626 51.2313 33.6901 50.1842L33.7174 50.1588C34.7849 49.1015 35.3901 47.6641 35.4 46.1618V46.1516C35.4 46.1402 35.4 46.1287 35.4 46.1167C35.4006 44.6258 34.8146 43.1943 33.7687 42.1318C33.7591 42.1203 33.7501 42.1111 33.7399 42.1009C32.6832 41.033 31.2462 40.4275 29.7439 40.4167H29.7362C29.7241 40.4167 29.712 40.4167 29.7 40.4167C29.0524 40.4179 28.4098 40.5305 27.8 40.7491V39.1844L27.9027 39.15H30.7848L35.5224 42.1111L36.6666 44.9725V47.3833C36.6666 47.7331 36.9502 48.0167 37.2999 48.0167H48.0666C48.4163 48.0167 48.6999 47.7331 48.6999 47.3833V45.4834H50.004C49.982 45.6788 49.9706 45.8752 49.969 46.0718V46.0821V46.1167C49.9693 47.5955 50.5461 49.0162 51.5771 50.0762C51.5817 50.0815 51.5867 50.0858 51.591 50.0917C52.6607 51.1938 54.1308 51.8164 55.6665 51.8167C57.1596 51.8179 58.5926 51.2313 59.6567 50.1842L59.6839 50.1588C60.7514 49.1015 61.3566 47.6641 61.3665 46.1618V46.1516C61.3665 46.1402 61.3665 46.1287 61.3665 46.1167C61.3659 45.2131 61.1485 44.3228 60.7332 43.52V41.3921L61.0152 41.5822C61.3062 41.7761 61.6993 41.6976 61.8935 41.4066C62.0877 41.1156 62.0091 40.7222 61.7181 40.5283L57.9181 37.9898ZM28.6037 41.8259L28.4998 42.0337C28.3436 42.3467 28.4704 42.7274 28.7837 42.8835C29.0966 43.04 29.4773 42.9129 29.6335 42.6L30.0819 41.7032C30.7449 41.7601 31.386 41.9669 31.9571 42.308L31.7388 42.3813C31.4064 42.492 31.2267 42.8511 31.3374 43.1835C31.4481 43.5156 31.8075 43.6953 32.1396 43.5846L33.0896 43.2679C33.5182 43.7779 33.8262 44.3778 33.9907 45.0229L33.7832 44.919C33.47 44.7628 33.0896 44.8899 32.9331 45.2029C32.7769 45.5158 32.9037 45.8965 33.217 46.0527L34.1138 46.5011C34.0569 47.1641 33.85 47.8052 33.5089 48.3766L33.4353 48.158C33.3246 47.8256 32.9656 47.6462 32.6335 47.7569C32.301 47.8676 32.1214 48.2267 32.2321 48.5588L32.5487 49.5088C32.0391 49.9374 31.4392 50.2454 30.7938 50.4096L30.8977 50.2024C31.0542 49.8895 30.9271 49.5088 30.6141 49.3523C30.3008 49.1961 29.9205 49.3232 29.764 49.6362L29.3199 50.5305C28.6572 50.4736 28.0158 50.2667 27.4447 49.9256L27.6633 49.852C27.9951 49.741 28.1742 49.3817 28.0628 49.0499C27.9515 48.7177 27.5925 48.539 27.2604 48.65L26.3104 48.9667C25.8817 48.457 25.574 47.8571 25.4098 47.2117L25.617 47.3156C25.93 47.4721 26.3107 47.345 26.4668 47.032C26.6233 46.7188 26.4962 46.3384 26.1833 46.1819L25.2865 45.7366C25.3434 45.0739 25.5502 44.4325 25.8913 43.8614L25.9646 44.08C26.076 44.4118 26.4353 44.5909 26.7671 44.4796C27.0989 44.3682 27.278 44.0092 27.1667 43.6771L26.85 42.7271C27.3593 42.2988 27.9589 41.9908 28.6037 41.8259ZM41.0999 33.4501H46.7557C46.9672 33.4501 47.1651 33.5558 47.2826 33.7321L50.7063 38.8683C50.7239 38.8906 50.7428 38.9116 50.7629 38.9317L50.0748 39.8486L49.2698 38.2338C49.2618 38.218 49.2497 38.2065 49.2408 38.192C49.2321 38.1775 49.2358 38.1735 49.2299 38.1654L46.6966 34.3654C46.5785 34.1882 46.3793 34.0825 46.1666 34.0834H42.9999C42.6502 34.0834 42.3666 34.367 42.3666 34.7167V41.6834H41.0999V33.4501ZM47.517 37.8834H43.6333V35.3501H45.828L47.517 37.8834ZM41.0999 42.95H42.3666V44.2167H41.0999V42.95ZM30.9666 37.8834H27.8V34.0834C27.8 33.7336 28.0836 33.4501 28.4333 33.4501H30.9666V37.8834ZM36.7155 41.6834L36.6218 41.4483C36.5714 41.3234 36.4826 41.2177 36.3685 41.1465L32.2246 38.5566C32.2246 38.5427 32.2327 38.5306 32.2327 38.5167V33.4501H39.8333V41.6834H36.7155ZM37.222 42.95H39.8333V44.2167H37.7289L37.222 42.95ZM47.4332 46.75H37.9333V45.4834H47.4332V46.75ZM47.6754 44.2167H43.6333V42.95H48.3087L47.6754 44.2167ZM43.6333 41.6834V39.15H48.3087L49.2587 41.05L48.942 41.6834H43.6333ZM49.0914 44.2167L50.5074 41.3846L52.1832 39.15H57.3767L59.4786 40.5515C59.4786 40.5689 59.4684 40.584 59.4684 40.6016V41.8804C58.438 40.9483 57.1005 40.4275 55.7111 40.4167H55.7033C55.6907 40.4167 55.6786 40.4167 55.6665 40.4167C54.1738 40.4158 52.7405 41.0021 51.6767 42.0495L51.6495 42.0749C51.0446 42.6788 50.5832 43.4108 50.299 44.2167H49.0914ZM59.478 48.3739L59.4047 48.1555C59.294 47.8231 58.9346 47.6434 58.6025 47.7541C58.2701 47.8648 58.0904 48.2242 58.2011 48.5563L58.5178 49.5063C58.0081 49.9349 57.4082 50.2429 56.7628 50.4068L56.8667 50.1999C57.0232 49.8867 56.8961 49.5063 56.5831 49.3498C56.2699 49.1937 55.8895 49.3204 55.733 49.6337L55.2865 50.5305C54.6238 50.4736 53.9824 50.2667 53.4112 49.9256L53.6299 49.852C53.962 49.7413 54.1417 49.3823 54.0309 49.0502C53.9202 48.7177 53.5612 48.5381 53.2291 48.6488L52.2791 48.9654C51.8502 48.4558 51.5425 47.8559 51.3783 47.2105L51.5855 47.3144C51.8984 47.4709 52.2791 47.3438 52.4353 47.0308C52.5917 46.7175 52.4646 46.3372 52.1517 46.1807L51.253 45.7366C51.3099 45.0739 51.5168 44.4325 51.8579 43.8614L51.9312 44.08C52.0419 44.4121 52.4009 44.5918 52.7334 44.4811C53.0655 44.3704 53.2452 44.0114 53.1345 43.6792L52.8178 42.7292C53.3277 42.3006 53.9277 41.9923 54.5727 41.8278L54.4688 42.0356C54.3127 42.3486 54.4398 42.7292 54.7527 42.8854C55.0657 43.0419 55.4464 42.9148 55.6025 42.6018L56.0509 41.705C56.7139 41.7619 57.355 41.9688 57.9265 42.3099L57.7079 42.3832C57.3754 42.4939 57.1961 42.8532 57.3068 43.1854C57.4175 43.5178 57.7765 43.6972 58.1086 43.5865L59.0586 43.2698C59.4872 43.7797 59.7952 44.3797 59.9601 45.0251L59.7523 44.9212C59.4393 44.7647 59.0586 44.8918 58.9022 45.2047C58.746 45.5177 58.8731 45.8984 59.186 46.0548L60.0828 46.5032C60.0244 47.1647 59.8169 47.8042 59.4755 48.3739H59.478Z" fill="#004C83"/>
<path d="M37.9333 34.7167H34.1333C33.7835 34.7167 33.4999 35.0003 33.4999 35.35V38.5167C33.4999 38.8664 33.7835 39.15 34.1333 39.15H37.9333C38.283 39.15 38.5666 38.8664 38.5666 38.5167V35.35C38.5666 35.0003 38.283 34.7167 37.9333 34.7167ZM37.2999 37.8833H34.7666V35.9833H37.2999V37.8833Z" fill="#004C83"/>
<path d="M55.6665 43.5833C54.2675 43.5833 53.1332 44.7176 53.1332 46.1166C53.1332 47.516 54.2675 48.65 55.6665 48.65C57.0658 48.65 58.1998 47.516 58.1998 46.1166C58.1998 44.7176 57.0658 43.5833 55.6665 43.5833ZM55.6665 47.3833C54.967 47.3833 54.3998 46.8162 54.3998 46.1166C54.3998 45.4171 54.967 44.85 55.6665 44.85C56.366 44.85 56.9332 45.4171 56.9332 46.1166C56.9332 46.8162 56.366 47.3833 55.6665 47.3833Z" fill="#004C83"/>
<path d="M29.7 48.65C31.0993 48.65 32.2333 47.516 32.2333 46.1166C32.2333 44.7176 31.0993 43.5833 29.7 43.5833C28.3009 43.5833 27.1666 44.7176 27.1666 46.1166C27.1666 47.516 28.3009 48.65 29.7 48.65ZM29.7 44.85C30.3995 44.85 30.9666 45.4171 30.9666 46.1166C30.9666 46.8162 30.3995 47.3833 29.7 47.3833C29.0004 47.3833 28.4333 46.8162 28.4333 46.1166C28.4333 45.4171 29.0004 44.85 29.7 44.85Z" fill="#004C83"/>
</g>
<defs>
<clipPath id="clip0">
<rect width="38" height="38" fill="white" transform="translate(24 23)"/>
</clipPath>
</defs>
</svg>
