<svg width="82" height="84" viewBox="0 0 82 84" fill="none" xmlns="http://www.w3.org/2000/svg">
<path d="M81 41.5942C81 64.0274 63.0779 82.1884 41 82.1884C18.9221 82.1884 1 64.0274 1 41.5942C1 19.161 18.9221 1 41 1C63.0779 1 81 19.161 81 41.5942Z" stroke="#004C83" stroke-width="2"/>
<path d="M56.8109 29.3999C57.3413 29.3999 57.8258 29.1003 58.0632 28.626C58.3003 28.1518 58.2491 27.5843 57.9309 27.16L56.8808 25.7601C56.6158 25.4082 56.2012 25.2009 55.7609 25.1999H44.911V23.8C44.9289 23.4305 44.7946 23.07 44.5393 22.8024C44.2573 22.5487 43.8901 22.4102 43.511 22.4141V21.7001C43.511 21.3134 43.1976 21 42.8108 21C42.4244 21 42.1107 21.3134 42.1107 21.7001V22.4H37.9108V21.7001C37.9108 21.3134 37.5974 21 37.2109 21C36.8242 21 36.5108 21.3134 36.5108 21.7001V22.4125C36.1314 22.4096 35.7645 22.5487 35.4825 22.8024C35.2271 23.07 35.0925 23.4305 35.1108 23.8V25.1999H24.2609C23.8203 25.2009 23.406 25.4082 23.141 25.7601L22.0909 27.16C21.7727 27.5843 21.7214 28.1518 21.9586 28.626C22.1957 29.1003 22.6805 29.3999 23.2108 29.3999H23.911V50.4483C23.6037 50.5271 23.3323 50.7075 23.141 50.96L22.0909 52.36C21.7727 52.7842 21.7214 53.3517 21.9586 53.826C22.1957 54.3005 22.6805 54.6001 23.2108 54.6001H25.3109V58.8001C24.5377 58.8001 23.911 59.4268 23.911 60.2V61.6C23.911 62.3732 24.5377 63 25.3109 63H30.2107C30.9839 63 31.6107 62.3732 31.6107 61.6V60.2C31.6094 59.7771 31.4159 59.3778 31.0845 59.1151L32.0657 57.4001H33.011C34.1706 57.4001 35.1108 56.4599 35.1108 55.3V54.6001H44.911V55.3C44.911 56.4599 45.8511 57.4001 47.0108 57.4001H47.9532C47.9628 57.4219 47.974 57.443 47.9859 57.4639L48.9359 59.1179C48.6062 59.3807 48.4133 59.7784 48.4108 60.2V61.6C48.4108 62.3732 49.0375 63 49.8107 63H54.7108C55.484 63 56.1108 62.3732 56.1108 61.6V60.2C56.1108 59.4268 55.484 58.8001 54.7108 58.8001V54.6001H56.8109C57.3413 54.6001 57.8258 54.3005 58.0632 53.826C58.3003 53.3517 58.2491 52.7842 57.9309 52.36L56.8808 50.96C56.6892 50.7075 56.4178 50.5271 56.1108 50.4483V29.3999H56.8109ZM36.5108 23.8118C36.6803 23.7984 36.8504 23.7945 37.0206 23.8H43.0012C43.1713 23.7952 43.3412 23.7993 43.511 23.8118V25.1999H36.5108V23.8118ZM24.2609 26.5999H55.7609L56.8158 27.9999H23.2108L24.2609 26.5999ZM28.8107 61.6H25.3109V60.2H30.2107V61.6H28.8107ZM33.7108 55.3C33.7108 55.6867 33.3974 56.0001 33.011 56.0001H32.0657C31.5293 56.0001 31.0397 56.3068 30.8058 56.7897L29.6509 58.8001H26.7109V54.6001H33.7108V55.3ZM54.7108 61.6H49.8107V60.2H54.7108V61.6ZM53.3108 58.8001H50.3709L49.215 56.7897C48.9814 56.3068 48.4921 56.0001 47.9557 56.0001H47.0108C46.6243 56.0001 46.3109 55.6867 46.3109 55.3V54.6001H53.3108V58.8001ZM56.8158 53.2001H23.2108L24.2609 51.7999H55.7609L56.8158 53.2001ZM54.7108 50.3999H25.3109V29.3999H54.7108V50.3999Z" fill="#004C83"/>
<path d="M35.1114 46.1999H44.9116C45.6848 46.1999 46.3116 45.5732 46.3116 44.7999V39.8999C46.3077 38.1564 45.5845 36.4917 44.3124 35.2997C43.0412 34.1 41.325 33.4886 39.5818 33.6146C36.2278 33.9029 33.6659 36.7324 33.7114 40.0982V44.7999C33.7114 45.5732 34.3382 46.1999 35.1114 46.1999ZM37.8687 42.4681C37.9207 42.3816 37.9764 42.2974 38.0318 42.2128C38.3603 41.7936 38.5522 41.2835 38.582 40.7519C38.8438 41.1608 38.9848 41.6353 38.9887 42.1211C38.9922 42.5114 39.254 42.852 39.6302 42.9555C40.0064 43.0593 40.4056 42.9011 40.6085 42.5678C41.275 41.5216 41.5191 40.2616 41.2916 39.0424C42.4817 40.1178 43.4001 41.9125 42.3859 44.7929V44.7999H37.2346C37.2272 43.9793 37.4467 43.1725 37.8687 42.4681ZM35.1114 40.0982C35.0643 37.4687 37.0555 35.2488 39.6747 35.0113C39.7888 35.0036 39.9022 35.0001 40.015 35.0001C41.2567 34.9969 42.4522 35.4702 43.3552 36.3222C44.345 37.2492 44.9081 38.5438 44.9116 39.8999V44.7999H43.842C44.9984 41.6222 43.468 38.0952 40.3572 36.7689C39.991 36.5914 39.5507 36.693 39.2988 37.0124C39.0425 37.3351 39.0447 37.7924 39.3046 38.1122C39.8343 38.7303 40.0759 39.5451 39.9689 40.3523C39.5952 39.5791 38.946 38.9738 38.1488 38.6553C37.8556 38.5287 37.5159 38.5781 37.2708 38.7828C36.9683 39.1151 36.8725 39.5865 37.0212 40.0107C37.0427 40.1171 37.0709 40.2206 37.0994 40.3299C37.1378 40.4536 37.1654 40.5805 37.1821 40.7093C37.1987 40.9192 37.0786 41.1146 36.8629 41.4428C36.7927 41.5443 36.7299 41.6466 36.6674 41.7501C36.1137 42.6707 35.8225 43.7255 35.8253 44.7999H35.1114V40.0982Z" fill="#004C83"/>
<path d="M29.5109 45.5001H30.9109V47.5999C30.9109 48.3731 31.5376 48.9999 32.3109 48.9999H47.7109C48.4841 48.9999 49.1109 48.3731 49.1109 47.5999H50.5109C51.2841 47.5999 51.9109 46.9731 51.9109 46.1999V44.8C51.9109 44.0267 51.2841 43.4 50.5109 43.4H49.1109V40.6H50.5109C51.2841 40.6 51.9109 39.9733 51.9109 39.2V37.8001C51.9109 37.0269 51.2841 36.4001 50.5109 36.4001H48.4108C46.8772 32.7266 43.1339 30.4765 39.1701 30.8454C35.2063 31.2142 31.9427 34.1167 31.1131 38.0099C30.832 37.8731 30.5235 37.8013 30.2107 37.8001C29.0511 37.8001 28.1109 38.7402 28.1109 39.8999V44.1001C28.1109 44.8733 28.7377 45.5001 29.5109 45.5001ZM50.5109 44.8V46.1999H49.1109V44.8H50.5109ZM50.5109 37.8001V39.2H49.075C49.0391 38.7284 48.9661 38.2602 48.8568 37.8001H50.5109ZM40.0109 32.2002C44.2615 32.205 47.7058 35.6496 47.7109 39.8999V47.5999H32.3109V39.8999C32.316 35.6496 35.7603 32.205 40.0109 32.2002ZM29.5109 39.8999C29.5109 39.5134 29.8243 39.2 30.2107 39.2C30.5975 39.2 30.9109 39.5134 30.9109 39.8999V44.1001H29.5109V39.8999Z" fill="#004C83"/>
</svg>
