<svg width="82" height="84" viewBox="0 0 82 84" fill="none" xmlns="http://www.w3.org/2000/svg">
<path d="M81 41.5942C81 64.0274 63.0779 82.1884 41 82.1884C18.9221 82.1884 1 64.0274 1 41.5942C1 19.161 18.9221 1 41 1C63.0779 1 81 19.161 81 41.5942Z" stroke="#004C83" stroke-width="2"/>
<g clip-path="url(#clip0)">
<path d="M28.2004 49.9667H52.2004V22.7333H28.2004V49.9667ZM41.0004 24.1667H50.6004V48.5333H41.0004V24.1667ZM29.8004 24.1667H39.4004V48.5333H29.8004V24.1667Z" fill="#004C83"/>
<path d="M28.2004 17V21.3H33.0004V17H28.2004ZM31.4004 19.8667H29.8004V18.4333H31.4004V19.8667Z" fill="#004C83"/>
<path d="M39.4004 17H34.6004V21.3H39.4004V17ZM37.8004 19.8667H36.2004V18.4333H37.8004V19.8667Z" fill="#004C83"/>
<path d="M41.0004 17V21.3H45.8004V17H41.0004ZM44.2004 19.8667H42.6004V18.4333H44.2004V19.8667Z" fill="#004C83"/>
<path d="M52.2004 17H47.4004V21.3H52.2004V17ZM50.6004 19.8667H49.0004V18.4333H50.6004V19.8667Z" fill="#004C83"/>
<path d="M57.6402 28.7536C57.4828 28.5822 57.248 28.4828 57.0004 28.4828C56.7523 28.4828 56.518 28.5822 56.3605 28.7536L53.9605 31.6203C53.7785 31.8373 53.7492 32.1281 53.8848 32.3706C54.0203 32.6134 54.2973 32.7667 54.6004 32.7667H59.4004C59.7031 32.7667 59.9804 32.6134 60.116 32.3706C60.2511 32.1281 60.2219 31.8373 60.0402 31.6203L57.6402 28.7536ZM56.2004 31.3334L57.0004 30.378L57.8004 31.3334H56.2004Z" fill="#004C83"/>
<path d="M59.4004 34.2H54.6004C54.2973 34.2 54.0203 34.3533 53.8848 34.5961C53.7492 34.8386 53.7785 35.1294 53.9605 35.3464L56.3605 38.2131C56.5113 38.3936 56.7484 38.5 57.0004 38.5C57.2519 38.5 57.489 38.3936 57.6402 38.2131L60.0402 35.3464C60.2219 35.1294 60.2511 34.8386 60.116 34.5961C59.9804 34.3533 59.7031 34.2 59.4004 34.2ZM57.0004 36.5887L56.2004 35.6333H57.8004L57.0004 36.5887Z" fill="#004C83"/>
<path d="M52.0254 51.6688C51.8734 51.4991 51.6434 51.4 51.4004 51.4H29.0004C28.7574 51.4 28.5273 51.4991 28.3754 51.6688L21.9754 58.8354C21.7832 59.0506 21.7457 59.3453 21.8789 59.5937C22.0121 59.8422 22.2926 60 22.6004 60H57.8004C58.1078 60 58.3883 59.8422 58.5215 59.5937C58.6547 59.3453 58.6176 59.0506 58.4254 58.8354L52.0254 51.6688ZM24.2652 58.5667L29.3848 52.8334H51.016L56.1355 58.5667H24.2652Z" fill="#004C83"/>
</g>
<defs>
<clipPath id="clip0">
<rect width="48" height="43" fill="white" transform="translate(17 17)"/>
</clipPath>
</defs>
</svg>
