<svg width="82" height="84" viewBox="0 0 82 84" fill="none" xmlns="http://www.w3.org/2000/svg">
<path d="M81 41.5942C81 64.0274 63.0779 82.1884 41 82.1884C18.9221 82.1884 1 64.0274 1 41.5942C1 19.161 18.9221 1 41 1C63.0779 1 81 19.161 81 41.5942Z" stroke="#004C83" stroke-width="2"/>
<g clip-path="url(#clip0)">
<path d="M59.9646 48.7491L57.6255 41.5125V37.0668C57.6255 34.2975 56.6336 31.6082 54.8324 29.4943C52.952 27.2871 50.698 25.3476 47.993 24.2373C45.2122 23.096 42.4476 23.0005 39.8545 23.0005C37.1316 23.0005 33.5251 23.9788 30.442 25.5537C27.9313 26.8363 25.5658 28.5878 23.9563 30.9334C22.7117 32.7475 22 34.8977 22 37.1021V46.0085C22 46.4184 22.3323 46.7507 22.7422 46.7507H29.4732V48.7141L22.6398 56.1601C21.7834 57.0336 21.7891 58.4427 22.6554 59.3092L23.6918 60.3456C24.1281 60.7818 24.7011 60.9999 25.2742 60.9999C25.8473 60.9999 26.4204 60.7818 26.8567 60.3456L37.1599 50.0422H49.1414C50.5053 50.0422 51.7455 49.0972 52.4738 47.9125C52.4738 47.9125 59.0609 49.6928 59.0647 49.6938C59.6126 49.8419 60.1437 49.3032 59.9646 48.7491ZM53.4497 30.1646C53.5342 30.2609 53.6186 30.3584 53.7026 30.457C55.2752 32.3026 56.1412 34.6501 56.1412 37.0669V38.3533L52.6439 37.4081C53.4078 34.8986 53.4998 32.0521 53.4497 30.1646ZM39.8545 24.4849C41.9795 24.4849 44.2208 24.5505 46.4327 25.2497L43.1826 28.926C42.1947 28.5043 39.9534 27.6762 37.5862 27.6762C32.5561 27.6762 28.2664 29.6299 25.5506 31.2716C29.0443 26.7521 36.1127 24.4849 39.8545 24.4849ZM23.4844 39.3287H28.6798V42.2975H23.4844V39.3287ZM49.1415 48.5578H36.8526C36.6558 48.5578 36.4669 48.636 36.3278 48.7752L25.8071 59.2959C25.5133 59.5897 25.0352 59.5897 24.7415 59.2959L23.7051 58.2595C23.4121 57.9665 23.4114 57.4891 23.7037 57.1953C23.7107 57.1882 23.7176 57.181 23.7243 57.1737L30.7622 49.505C30.8878 49.3681 30.9575 49.189 30.9575 49.0032V46.7507H48.1752L50.9485 47.5002C50.4497 48.1128 49.7648 48.5578 49.1415 48.5578ZM48.4675 45.2921C48.4044 45.275 48.3393 45.2663 48.2739 45.2663H23.4844V43.782H43.5237C43.9327 43.782 44.2659 43.4488 44.2659 43.0398C44.2659 42.6301 43.9327 42.2977 43.5237 42.2977H42.1878V38.5866C42.1878 38.1767 41.8555 37.8444 41.4456 37.8444H36.9924C36.5825 37.8444 36.2502 38.1767 36.2502 38.5866V42.2977H30.1642V38.5866C30.1642 38.1767 29.8319 37.8444 29.422 37.8444H23.4844V37.1022C23.4844 36.0874 23.6491 35.0945 23.9741 34.1478C25.6718 32.8193 30.9545 29.1606 37.5862 29.1606C40.3361 29.1606 43.0172 30.4794 43.0434 30.4924C43.3443 30.6428 43.7086 30.5722 43.9313 30.3202L47.9101 25.8195C49.2922 26.4536 50.595 27.3466 51.8734 28.5351C51.9829 29.7632 52.2688 34.2558 50.993 37.6579C50.845 38.0526 51.0719 38.521 51.4942 38.635L56.1411 39.891V41.6296C56.1411 41.7071 56.1533 41.7841 56.1771 41.8578L57.0258 44.4834C57.0258 44.4834 49.6782 42.3299 49.6699 42.3274C49.2878 42.2154 48.8635 42.4423 48.7488 42.8314C48.6338 43.224 48.8601 43.6367 49.2528 43.7524L57.5779 46.1918L58.1314 47.904L48.4675 45.2921ZM37.7346 42.2975V39.3287H40.7034V42.2975H37.7346Z" fill="#004C83"/>
<path d="M46.4926 42.2974C46.0836 42.2974 45.7504 42.6299 45.7504 43.0396C45.7504 43.4486 46.0836 43.7818 46.4926 43.7818C46.9015 43.7818 47.2347 43.4486 47.2347 43.0396C47.2347 42.6299 46.9015 42.2974 46.4926 42.2974Z" fill="#004C83"/>
</g>
<defs>
<clipPath id="clip0">
<rect width="38" height="38" fill="white" transform="translate(22 23)"/>
</clipPath>
</defs>
</svg>
