<svg width="82" height="84" viewBox="0 0 82 84" fill="none" xmlns="http://www.w3.org/2000/svg">
<path d="M81 41.5942C81 64.0274 63.0779 82.1884 41 82.1884C18.9221 82.1884 1 64.0274 1 41.5942C1 19.161 18.9221 1 41 1C63.0779 1 81 19.161 81 41.5942Z" stroke="#004C83" stroke-width="2"/>
<g clip-path="url(#clip0)">
<path d="M59.2215 41.4676L57.5911 40.7665V39.6516C57.614 32.8092 53.2967 26.7043 46.8376 24.4463V22.8751C46.8376 22.4088 46.4591 22.0303 45.9931 22.0303H36.9542C36.4881 22.0303 36.1096 22.4088 36.1096 22.8751V24.4546C29.6506 26.7126 25.3333 32.8175 25.3562 39.6599V40.7833L23.7426 41.4676C23.43 41.5996 23.2273 41.9062 23.2273 42.2449V46.6798C23.2273 47.1459 23.6058 47.5244 24.0721 47.5244H25.1704V49.2141C25.1704 49.6802 25.5486 50.0587 26.0149 50.0587H29.0476C29.3357 51.1163 29.7588 52.1335 30.3062 53.0828L28.1607 55.2286C27.8329 55.5578 27.8329 56.09 28.1607 56.4195L31.7508 60.0097C32.0801 60.3375 32.6123 60.3375 32.9418 60.0097L35.0873 57.8642C36.0343 58.4116 37.0481 58.8339 38.1031 59.1227V62.1554C38.1031 62.6215 38.4816 63 38.948 63H44.0162C44.4826 63 44.8611 62.6215 44.8611 62.1554V59.1227C45.9186 58.8347 46.9355 58.4124 47.8852 57.8642L50.0309 60.0097C50.3602 60.3375 50.8924 60.3375 51.2219 60.0097L54.812 56.4195C55.1398 56.09 55.1398 55.5578 54.812 55.2286L52.6663 53.0828C53.2137 52.1335 53.6371 51.1163 53.9251 50.0587H56.9575C57.4239 50.0587 57.8024 49.6802 57.8024 49.2141V47.5244H58.9006C59.367 47.5244 59.7452 47.1459 59.7452 46.6798V42.2449C59.7434 41.9036 59.5367 41.597 59.2215 41.4676ZM37.7822 23.7283H45.1482V37.8437H37.7991L37.7822 23.7283ZM56.1213 48.3693H53.3084C52.903 48.3598 52.5489 48.6404 52.4636 49.0363C52.179 50.3593 51.6554 51.6187 50.9179 52.7533C50.7006 53.0871 50.7472 53.5271 51.0275 53.8091L53.0465 55.8281L50.6304 58.2272L48.6115 56.2083C48.3295 55.928 47.8895 55.8813 47.5556 56.0986C46.4211 56.8358 45.1617 57.3597 43.8387 57.6443C43.4425 57.7296 43.1622 58.0838 43.1714 58.4892V61.3358H39.7925V58.4637C39.802 58.0583 39.5214 57.7044 39.1252 57.6191C37.8025 57.3351 36.5428 56.8115 35.4085 56.0731C35.0747 55.8561 34.6347 55.9025 34.3524 56.1831L32.3334 58.202L29.9429 55.8112L31.9618 53.7922C32.2424 53.5102 32.2888 53.0702 32.0718 52.7364C31.3274 51.6087 30.7952 50.355 30.5006 49.0363C30.415 48.6404 30.0611 48.3598 29.6557 48.3693H26.8429V47.5244H34.5637C35.0266 51.341 38.4959 54.0593 42.3125 53.5956C45.492 53.2096 47.9983 50.704 48.3836 47.5244H56.113L56.1213 48.3693ZM36.2869 47.5244H46.6856C46.2209 50.3982 43.5143 52.3513 40.6408 51.8867C38.3988 51.5242 36.641 49.7664 36.2786 47.5244H36.2869ZM58.0643 45.835H24.9084V42.8023L26.5386 42.1012C26.8512 41.9695 27.0539 41.6628 27.0539 41.3239V39.6345C27.0353 33.7348 30.6271 28.4249 36.1096 26.2454V38.6885C36.1096 39.1546 36.4878 39.5331 36.9542 39.5331H46.0097C46.476 39.5331 46.8545 39.1546 46.8545 38.6885V26.2454C52.3462 28.4241 55.9423 33.7443 55.9186 39.6513V41.341C55.9186 41.6797 56.1213 41.9864 56.4339 42.118L58.064 42.8192V45.835H58.0643Z" fill="#004C83"/>
</g>
<defs>
<clipPath id="clip0">
<rect width="41" height="41" fill="white" transform="matrix(1 0 0 -1 21 63)"/>
</clipPath>
</defs>
</svg>
