<svg width="82" height="84" viewBox="0 0 82 84" fill="none" xmlns="http://www.w3.org/2000/svg">
<path d="M81 41.5942C81 64.0274 63.0779 82.1884 41 82.1884C18.9221 82.1884 1 64.0274 1 41.5942C1 19.161 18.9221 1 41 1C63.0779 1 81 19.161 81 41.5942Z" stroke="#004C83" stroke-width="2"/>
<g clip-path="url(#clip0)">
<path d="M41.9721 34.865C41.6365 35.2008 41.6365 35.7451 41.9723 36.0809C42.3081 36.4168 42.8525 36.4167 43.1881 36.0808L43.898 35.3706C44.1533 35.1152 44.2218 34.7275 44.0694 34.4C43.5957 33.3821 43.3555 32.329 43.3555 31.2699C43.3555 29.1138 44.294 27.083 45.8771 25.6799L45.8799 31.3078C45.88 31.5897 46.0184 31.8537 46.2502 32.0143L50.3293 34.8388C50.6235 35.0426 51.0134 35.0427 51.3078 34.839L55.3883 32.0159C55.6205 31.8553 55.759 31.5911 55.759 31.3088L55.7584 25.6812C57.3413 27.083 58.2799 29.1122 58.2805 31.2665C58.2805 33.2602 57.5042 35.1346 56.0946 36.5445C54.6861 37.9533 52.814 38.7289 50.8223 38.7289C50.8204 38.7289 50.8184 38.7289 50.8165 38.7289C50.1312 38.7284 48.786 38.3966 48.3254 38.2688C48.0268 38.1857 47.7065 38.2701 47.4873 38.4891L44.8736 41.103C44.5379 41.4387 44.5379 41.9831 44.8736 42.3189C45.0415 42.4867 45.2615 42.5707 45.4815 42.5707C45.7015 42.5707 45.9216 42.4867 46.0894 42.3189L48.3551 40.0531C48.9867 40.2094 50.0725 40.4478 50.8151 40.4484C50.8177 40.4484 50.8198 40.4484 50.8223 40.4484C53.273 40.4483 55.5772 39.4937 57.3104 37.7602C59.0447 36.0256 59.9997 33.7194 59.9997 31.2663C59.999 27.962 58.2061 24.8979 55.3208 23.2697C55.0547 23.1195 54.7287 23.1218 54.4647 23.276C54.2008 23.4301 54.0385 23.7128 54.0386 24.0185L54.0392 30.8583L50.8187 33.0863L47.5993 30.8568L47.5959 24.0165C47.5957 23.7109 47.4333 23.4283 47.1694 23.2743C46.9055 23.1203 46.5795 23.1181 46.3134 23.2684C43.4284 24.8981 41.6362 27.9641 41.6362 31.2698C41.6362 32.3864 41.8494 33.4926 42.2709 34.5663L41.9721 34.865Z" fill="#004C83"/>
<path d="M39.6956 46.2812L27.7693 58.2079C27.3211 58.6564 26.7253 58.9035 26.0917 58.9039C26.0913 58.9039 26.0909 58.9039 26.0904 58.9039C25.457 58.9038 24.8611 58.6569 24.413 58.2088C23.965 57.7603 23.7186 57.1637 23.7194 56.5288C23.7201 55.8958 23.9669 55.3015 24.4155 54.8544L34.6737 44.5953C35.0094 44.2595 35.0094 43.7152 34.6737 43.3794C34.338 43.0438 33.7936 43.0437 33.4579 43.3795L23.2008 53.6376C22.4277 54.408 22.0013 55.4341 22 56.5268C21.9987 57.6213 22.4237 58.6503 23.1969 59.4244C23.9701 60.1976 24.9977 60.6233 26.0904 60.6233C26.0912 60.6233 26.092 60.6233 26.0926 60.6233C27.1854 60.6227 28.2128 60.1966 28.9854 59.4236L40.9114 47.4971C41.2472 47.1614 41.2472 46.617 40.9114 46.2812C40.5756 45.9456 40.0313 45.9456 39.6956 46.2812Z" fill="#004C83"/>
<path d="M26.0782 55.485C25.795 55.4852 25.529 55.5958 25.3326 55.7932C24.9194 56.2039 24.9173 56.875 25.328 57.289C25.329 57.2901 25.3301 57.291 25.3311 57.2921C25.537 57.4975 25.8073 57.6003 26.078 57.6003C26.3494 57.6003 26.6211 57.497 26.8286 57.29C27.24 56.8765 27.2388 56.2054 26.8276 55.7955C26.6277 55.5952 26.3619 55.485 26.0789 55.485C26.0787 55.485 26.0785 55.485 26.0782 55.485Z" fill="#004C83"/>
<path d="M54.1866 51.1265C54.0975 51.0376 53.9901 50.9692 53.8718 50.9262L51.4063 50.0323L42.5006 41.1264L43.94 39.687C44.2757 39.3513 44.2758 38.8069 43.94 38.4711C43.6852 38.2164 43.3103 38.1549 42.9975 38.2868L29.5271 24.8179C28.7124 24.0006 27.6274 23.5497 26.472 23.5483C26.4703 23.5483 26.4688 23.5483 26.4671 23.5483C25.3117 23.5483 24.2257 23.9976 23.4085 24.8139C22.5903 25.6321 22.14 26.7194 22.1407 27.8758C22.1413 29.0312 22.5919 30.1175 23.4093 30.9344L36.8798 44.4044C36.748 44.7171 36.8093 45.092 37.0642 45.3468C37.4 45.6825 37.9443 45.6827 38.28 45.3468L39.7191 43.9077L48.6249 52.8135L49.519 55.279C49.5619 55.3973 49.6302 55.5049 49.7193 55.5939L54.7164 60.5909C54.8843 60.7587 55.1043 60.8427 55.3243 60.8427C55.5443 60.8427 55.7644 60.7587 55.9322 60.5909L59.1836 57.3395C59.3448 57.1782 59.4354 56.9595 59.4354 56.7315C59.4354 56.5035 59.3448 56.2849 59.1836 56.1236L54.1866 51.1265ZM40.6767 40.5184C40.6748 40.5202 40.673 40.5222 40.6712 40.524L38.0511 43.144L24.6249 29.7184C24.1321 29.2259 23.8605 28.5712 23.8602 27.8749C23.8598 27.1782 24.1312 26.5229 24.624 26.0301C25.1162 25.5384 25.7706 25.2679 26.4671 25.2679C26.4681 25.2679 26.4691 25.2679 26.4701 25.2679C27.1658 25.2687 27.8189 25.54 28.3101 26.0328L41.737 39.4582L40.6822 40.5129C40.6804 40.5147 40.6785 40.5165 40.6767 40.5184ZM55.3243 58.7671L51.0703 54.5132L50.1763 52.0477C50.1334 51.9294 50.0651 51.8218 49.976 51.7328L40.935 42.6919L41.2847 42.3423L50.3256 51.3833C50.4147 51.4722 50.5222 51.5406 50.6405 51.5836L53.1059 52.4775L57.3599 56.7315L55.3243 58.7671Z" fill="#004C83"/>
<path d="M27.0708 27.2619C26.735 26.9262 26.1907 26.9262 25.8549 27.2619C25.5192 27.5976 25.5192 28.142 25.8549 28.4778L37.715 40.3377C37.8828 40.5055 38.1029 40.5895 38.3229 40.5895C38.5429 40.5895 38.763 40.5055 38.9308 40.3377C39.2665 40.002 39.2665 39.4576 38.9308 39.1218L27.0708 27.2619Z" fill="#004C83"/>
</g>
<defs>
<clipPath id="clip0">
<rect width="38" height="38" fill="white" transform="translate(22 23)"/>
</clipPath>
</defs>
</svg>
