<svg width="82" height="84" viewBox="0 0 82 84" fill="none" xmlns="http://www.w3.org/2000/svg">
<path d="M81 41.5942C81 64.0274 63.0779 82.1884 41 82.1884C18.9221 82.1884 1 64.0274 1 41.5942C1 19.161 18.9221 1 41 1C63.0779 1 81 19.161 81 41.5942Z" stroke="#004C83" stroke-width="2"/>
<g clip-path="url(#clip0)">
<path d="M57.467 54.3248V51.7281C57.467 50.329 56.3328 49.1947 54.9337 49.1947H50.6421L44.7463 45.7063L48.9264 43.2362C49.5057 42.8954 49.8624 42.2745 49.8651 41.6025C49.8678 40.9304 49.5161 40.3067 48.9397 39.9612L44.6234 37.2663L49.8275 33.9945H51.1335C52.1829 33.9945 53.0336 33.1437 53.0336 32.0944V23.861C53.0336 23.1614 52.4664 22.5942 51.7669 22.5942H30.2331C29.5335 22.5942 28.9664 23.1614 28.9664 23.861V32.0944C28.9664 33.1437 29.817 33.9945 30.8664 33.9945H32.1724L37.3766 37.2657L33.0698 39.953C32.4884 40.2954 32.1314 40.9199 32.1314 41.5946C32.1314 42.2693 32.4883 42.8938 33.0698 43.2362L37.2537 45.7063L31.3586 49.1947H27.0664C25.6673 49.1947 24.5331 50.329 24.5331 51.7281V54.3248C22.9802 54.6422 21.9012 56.0588 22.0077 57.6401C22.1141 59.2215 23.3732 60.4806 24.9546 60.587C26.5359 60.6935 27.9524 59.6144 28.2698 58.0616H53.7303C54.0477 59.6144 55.4643 60.6935 57.0456 60.587C58.6269 60.4806 59.8861 59.2215 59.9925 57.6401C60.0989 56.0588 59.0199 54.6422 57.467 54.3248ZM48.1569 49.1947H45.6501L42.2465 47.1826L43.5018 46.441L48.1569 49.1947ZM43.1623 49.1947H38.8397L41 47.9173L43.1623 49.1947ZM43.4295 36.5208L42.1939 35.7494L45.0072 33.9944H47.4487L43.4295 36.5208ZM41 35.0021L39.385 33.9945H42.6151L41 35.0021ZM49.2335 23.861H51.7668V29.5611H49.2335V23.861ZM45.4334 23.861H47.9668V29.5611H45.4334V23.861ZM41.6333 23.861H44.1667V29.5611H41.6333V23.861ZM37.8333 23.861H40.3666V29.5611H37.8333V23.861ZM34.0332 23.861H36.5666V29.5611H34.0332V23.861ZM30.2331 23.861H32.7665V29.5611H30.2331V23.861ZM30.8665 32.7277C30.5167 32.7277 30.2332 32.4442 30.2332 32.0944V30.8277H51.7669V32.0944C51.7669 32.4442 51.4833 32.7277 51.1336 32.7277H30.8665ZM33.7166 42.1449C33.5214 42.0301 33.4011 41.8211 33.3999 41.5946C33.4024 41.363 33.5278 41.1503 33.7292 41.036L38.5686 38.0156L39.8093 38.7959L36.2107 41.0582C36.0238 41.1758 35.9116 41.3821 35.9146 41.6028C35.9176 41.8236 36.0353 42.0269 36.2253 42.1393L39.7556 44.2293L38.5002 44.9716L33.7166 42.1449ZM41 39.5438L44.2371 41.5788L41 43.4946L37.7636 41.5788L41 39.5438ZM41.3008 44.7873L41.3205 44.7759L45.7754 42.1406C45.9654 42.0281 46.0831 41.8248 46.086 41.6041C46.089 41.3834 45.9769 41.177 45.79 41.0595L34.5526 33.9945H36.9929L48.2835 41.0442C48.4793 41.1583 48.5997 41.3679 48.5997 41.5945C48.5997 41.8211 48.4793 42.0307 48.2835 42.1449L36.35 49.1947H33.8432L41.3008 44.7873ZM25.1664 59.3283C24.1171 59.3283 23.2664 58.4776 23.2664 57.4282C23.2664 56.3788 24.1171 55.5282 25.1664 55.5282C26.2157 55.5282 27.0664 56.3789 27.0664 57.4282C27.0664 58.4775 26.2157 59.3283 25.1664 59.3283ZM50.5002 56.7949H31.4998V53.6281H50.5002V56.7949ZM53.7303 56.7949H51.7669V53.6281C51.7669 52.9285 51.1998 52.3614 50.5002 52.3614H31.4998C30.8002 52.3614 30.2331 52.9285 30.2331 53.6281V56.7949H28.2698C28.0136 55.5522 27.0425 54.5811 25.7997 54.3248V51.7281C25.7997 51.0285 26.3668 50.4614 27.0664 50.4614H54.9337C55.6333 50.4614 56.2004 51.0285 56.2004 51.7281V54.3248C54.9576 54.5811 53.9865 55.5522 53.7303 56.7949ZM56.8336 59.3283C55.7843 59.3283 54.9336 58.4776 54.9336 57.4282C54.9336 56.3788 55.7843 55.5282 56.8336 55.5282C57.883 55.5282 58.7337 56.3789 58.7337 57.4282C58.7337 58.4775 57.883 59.3283 56.8336 59.3283Z" fill="#004C83"/>
</g>
<defs>
<clipPath id="clip0">
<rect width="38" height="38" fill="white" transform="translate(22 22.5942)"/>
</clipPath>
</defs>
</svg>
