<svg width="82" height="84" viewBox="0 0 82 84" fill="none" xmlns="http://www.w3.org/2000/svg">
<path d="M81 41.5942C81 64.0274 63.0779 82.1884 41 82.1884C18.9221 82.1884 1 64.0274 1 41.5942C1 19.161 18.9221 1 41 1C63.0779 1 81 19.161 81 41.5942Z" stroke="#004C83" stroke-width="2"/>
<path d="M52.5193 26.6539H27.4808C27.0341 26.6539 26.6731 27.0149 26.6731 27.4616V54.9231C26.6731 55.3698 27.0341 55.7308 27.4808 55.7308H52.5193C52.9659 55.7308 53.3269 55.3698 53.3269 54.9231V27.4616C53.3269 27.0149 52.9659 26.6539 52.5193 26.6539ZM51.7116 28.2693V33.1154H28.2885V28.2693H51.7116ZM28.2885 54.1154V34.7308H51.7116V54.1154H28.2885Z" fill="#004C83"/>
<path d="M33.1346 29.8846H30.7115V31.5H33.1346V29.8846Z" fill="#004C83"/>
<path d="M37.1731 29.8846H34.75V31.5H37.1731V29.8846Z" fill="#004C83"/>
<path d="M41.2115 29.8846H38.7885V31.5H41.2115V29.8846Z" fill="#004C83"/>
<path d="M45.25 29.8846H42.8269V31.5H45.25V29.8846Z" fill="#004C83"/>
<path d="M49.2884 29.8846H46.8654V31.5H49.2884V29.8846Z" fill="#004C83"/>
<path d="M57.3654 56.5385V21.8077C57.3654 21.361 57.0043 21 56.5577 21H23.4423C22.9956 21 22.6346 21.361 22.6346 21.8077V56.5385C22.1879 56.5385 21.8269 56.8995 21.8269 57.3462V62.1923C21.8269 62.639 22.1879 63 22.6346 63H57.3654C57.812 63 58.1731 62.639 58.1731 62.1923V57.3462C58.1731 56.8995 57.812 56.5385 57.3654 56.5385ZM24.25 22.6154H55.75V24.2308H24.25V22.6154ZM24.25 25.8462H55.75V56.5385H24.25V25.8462ZM56.5577 61.3846H23.4423V58.1538H56.5577V61.3846Z" fill="#004C83"/>
</svg>
