<svg width="82" height="84" viewBox="0 0 82 84" fill="none" xmlns="http://www.w3.org/2000/svg">
<path d="M81 41.5942C81 64.0274 63.0779 82.1884 41 82.1884C18.9221 82.1884 1 64.0274 1 41.5942C1 19.161 18.9221 1 41 1C63.0779 1 81 19.161 81 41.5942Z" stroke="#004C83" stroke-width="2"/>
<g clip-path="url(#clip0)">
<path d="M56.6907 38.3044V34.5353C56.6907 34.1128 56.3479 33.7703 55.9254 33.7703H51.1447V23.02C51.1447 22.5975 50.8022 22.255 50.3797 22.255H44.4657C44.0432 22.255 43.7007 22.5975 43.7007 23.02V33.7703H36.9503V23.02C36.9503 22.5975 36.6078 22.255 36.1853 22.255H30.271C29.8487 22.255 29.506 22.5975 29.506 23.02V33.7703H25.1543C24.7318 33.7703 24.3891 34.1128 24.3891 34.5353V41.5375H21.7055C21.283 41.5375 20.9405 41.88 20.9405 42.3025V48.4186C20.9298 48.4697 20.9238 48.5227 20.9238 48.5771C20.9238 48.6316 20.9298 48.6846 20.9405 48.7357V53.9321C20.9405 54.3546 21.283 54.6971 21.7055 54.6971H59.1588C59.5814 54.6971 59.9238 54.3546 59.9238 53.9321V42.3025C59.9238 41.88 59.5814 41.5375 59.1588 41.5375H56.6907V38.3044ZM45.2307 23.785H49.6147V26.3594H45.2307V23.785ZM45.2307 27.9182H49.6147V33.7703H45.2307V27.9182ZM31.0359 23.785H35.4203V26.3594H31.0359V23.785ZM31.0359 27.9182H35.4203V33.7703H31.0359V27.9182ZM25.9193 39.3151H37.4415C37.864 39.3151 38.2065 38.9726 38.2065 38.5501C38.2065 38.1276 37.864 37.7851 37.4415 37.7851H25.9193V35.3003H55.1604V37.7967H43.4659C43.0437 37.7967 42.701 38.1395 42.701 38.562C42.701 38.9846 43.0437 39.327 43.4659 39.327H55.1604V41.4375H25.9193V39.3151ZM58.3938 53.1671H22.4705V49.3421H26.8938V50.9168C26.8938 51.3393 27.2363 51.6817 27.6588 51.6817H32.8831C33.3056 51.6817 33.6484 51.3393 33.6484 50.9168V49.3421H37.0547V50.9168C37.0547 51.3393 37.3975 51.6817 37.82 51.6817H43.0443C43.4668 51.6817 43.8093 51.3393 43.8093 50.9168V49.3421H47.2159V50.9168C47.2159 51.3393 47.5587 51.6817 47.9809 51.6817H53.2055C53.628 51.6817 53.9705 51.3393 53.9705 50.9168V49.3421H58.3936V53.1671H58.3938ZM32.1181 48.7357V50.1518H28.4238V46.4574H32.1181V48.7357ZM42.2793 48.7357V50.1518H38.585V46.4574H42.2793V48.7357ZM48.7462 50.1518V46.4574H52.4405V50.1518H48.7462ZM58.3938 47.8122H53.9705V45.6924C53.9705 45.2699 53.628 44.9271 53.2055 44.9271H47.9812C47.5587 44.9271 47.2159 45.2699 47.2159 45.6924V47.8122H43.8096V45.6924C43.8096 45.2699 43.4668 44.9271 43.0446 44.9271H37.82C37.3975 44.9271 37.055 45.2699 37.055 45.6924V47.8122H33.6484V45.6924C33.6484 45.2699 33.3059 44.9271 32.8834 44.9271H27.6588C27.2363 44.9271 26.8938 45.2699 26.8938 45.6924V47.8122H22.4705V43.0675H58.3938V47.8122Z" fill="#004C83"/>
<path d="M32.7513 57.7266C32.3568 58.0408 31.8164 58.4713 31.8164 59.1837C31.8164 59.7541 32.1023 60.1688 32.4118 60.4506C32.7445 60.7535 33.2771 60.6321 33.4437 60.2141L33.5413 59.9754C33.6368 59.7424 33.5916 59.4711 33.4148 59.2917C33.3907 59.2673 33.3717 59.2441 33.3601 59.2235C33.4333 59.1396 33.5993 59.0072 33.7049 58.923C34.0995 58.6085 34.6398 58.178 34.6398 57.4659C34.6398 56.2942 33.4333 55.7794 33.2958 55.7247C32.9036 55.5685 32.4582 55.7598 32.302 56.1523C32.1455 56.5447 32.3371 56.9898 32.7296 57.1461C32.8498 57.194 33.0447 57.3332 33.0967 57.4255C33.0236 57.5094 32.8572 57.6421 32.7513 57.7266Z" fill="#004C83"/>
<path d="M46.9461 57.7266C46.5515 58.0408 46.0112 58.4716 46.0112 59.1837C46.0112 59.7541 46.2971 60.1688 46.6063 60.4506C46.9392 60.7535 47.4715 60.6321 47.6382 60.2141L47.736 59.9754C47.8313 59.7424 47.786 59.4711 47.6093 59.292C47.5855 59.2673 47.5664 59.2441 47.5545 59.2238C47.6277 59.1396 47.7938 59.0072 47.8994 58.923C48.2939 58.6088 48.8343 58.178 48.8343 57.4659C48.8343 56.2942 47.6277 55.7794 47.4903 55.7247C47.0981 55.5685 46.653 55.7598 46.4965 56.1523C46.34 56.5447 46.5316 56.9898 46.924 57.1461C47.0443 57.194 47.2391 57.3332 47.2912 57.4255C47.2183 57.5094 47.0517 57.6421 46.9461 57.7266Z" fill="#004C83"/>
<path d="M41.1367 38.1035C40.9781 37.7117 40.5318 37.5227 40.1405 37.681C39.749 37.8396 39.5597 38.2853 39.7183 38.6772L39.7275 38.7007C39.8481 38.9983 40.1346 39.1789 40.4372 39.1789C40.5327 39.1789 40.6297 39.161 40.7237 39.1229C41.1153 38.9647 41.3046 38.5186 41.146 38.1271L41.1367 38.1035Z" fill="#004C83"/>
</g>
<defs>
<clipPath id="clip0">
<rect width="39" height="39" fill="white" transform="matrix(1 0 0 -1 21 61)"/>
</clipPath>
</defs>
</svg>
