<svg width="82" height="84" viewBox="0 0 82 84" fill="none" xmlns="http://www.w3.org/2000/svg">
<path d="M81 41.5942C81 64.0274 63.0779 82.1884 41 82.1884C18.9221 82.1884 1 64.0274 1 41.5942C1 19.161 18.9221 1 41 1C63.0779 1 81 19.161 81 41.5942Z" stroke="#004C83" stroke-width="2"/>
<path d="M58.1 22.2667H56.2C55.8502 22.2667 55.5666 22.5502 55.5666 22.9V23.5333H52.4V22.2667C52.4 21.9169 52.1164 21.6333 51.7666 21.6333H48.6C48.2502 21.6333 47.9666 21.9169 47.9666 22.2667V23.5333H42.9V21.6333C42.9 21.2836 42.6164 21 42.2666 21H39.7333C39.3835 21 39.1 21.2836 39.1 21.6333V23.5333H34.0333V22.2667C34.0333 21.9169 33.7497 21.6333 33.4 21.6333H30.2333C29.8835 21.6333 29.6 21.9169 29.6 22.2667V23.5333H26.4333V22.9C26.4333 22.5502 26.1497 22.2667 25.8 22.2667H23.9C23.2004 22.2667 22.6333 22.8337 22.6333 23.5333V27.3333C22.6333 28.0329 23.2004 28.6 23.9 28.6H25.8C26.1497 28.6 26.4333 28.3164 26.4333 27.9667V27.3333H29.6V29.5848C26.5791 30.542 24.5282 33.3479 24.5333 36.5167V56.4667C24.5333 57.8658 25.6675 59 27.0666 59H36.5666C37.9657 59 39.1 57.8658 39.1 56.4667V50.7667H42.9V56.4667C42.9 57.8658 44.0342 59 45.4333 59H54.9333C56.3324 59 57.4666 57.8658 57.4666 56.4667V36.5167C57.4717 33.3479 55.4208 30.542 52.4 29.5848V27.3333H55.5666V27.9667C55.5666 28.3164 55.8502 28.6 56.2 28.6H58.1C58.7996 28.6 59.3666 28.0329 59.3666 27.3333V23.5333C59.3666 22.8337 58.7996 22.2667 58.1 22.2667ZM25.1666 27.3333H23.9V23.5333H25.1666V27.3333ZM49.2333 22.9H51.1333V23.5333H49.2333V22.9ZM49.2333 24.8H51.1333V26.0667H49.2333V24.8ZM42.9 24.8H47.9666V26.0667H42.9V24.8ZM40.3666 22.2667H41.6333V23.5333H40.3666V22.2667ZM40.3666 24.8H41.6333V26.0667H40.3666V24.8ZM34.0333 24.8H39.1V26.0667H34.0333V24.8ZM30.8666 22.9H32.7666V23.5333H30.8666V22.9ZM30.8666 24.8H32.7666V26.0667H30.8666V24.8ZM26.4333 26.0667V24.8H29.6V26.0667H26.4333ZM37.8333 56.4667C37.8333 57.1663 37.2662 57.7333 36.5666 57.7333H27.0666C26.367 57.7333 25.8 57.1663 25.8 56.4667V54.5667H37.8333V56.4667ZM37.8333 53.3H25.8V50.7667H37.8333V53.3ZM37.8333 49.5H25.8V46.9667H37.8333V49.5ZM37.8333 45.7H25.8V42.5333H37.8333V45.7ZM37.8333 41.2667H25.8V38.7333H37.8333V41.2667ZM37.8333 37.4667H25.8V36.5167C25.7957 33.7454 27.6908 31.3322 30.384 30.6792C30.6673 30.6098 30.8666 30.3559 30.8666 30.0643V27.3333H32.7666V30.0643C32.7667 30.3559 32.966 30.6098 33.2492 30.6792C35.9425 31.3322 37.8376 33.7454 37.8333 36.5167V37.4667ZM42.9 49.5H39.1V46.9667H42.9V49.5ZM42.9 45.7H39.1V42.5333H42.9V45.7ZM42.9 41.2667H39.1V38.7333H42.9V41.2667ZM42.9 36.5167V37.4667H39.1V36.5167C39.105 33.3479 37.0541 30.542 34.0333 29.5848V27.3333H39.7333H47.9666V29.5848C44.9458 30.542 42.8949 33.3479 42.9 36.5167ZM56.2 56.4667C56.2 57.1663 55.6329 57.7333 54.9333 57.7333H45.4333C44.7337 57.7333 44.1666 57.1663 44.1666 56.4667V54.5667H56.2V56.4667ZM56.2 53.3H44.1666V50.7667H56.2V53.3ZM56.2 49.5H44.1666V46.9667H56.2V49.5ZM56.2 45.7H44.1666V42.5333H56.2V45.7ZM56.2 41.2667H44.1666V38.7333H56.2V41.2667ZM56.2 36.5167V37.4667H44.1666V36.5167C44.1624 33.7454 46.0575 31.3322 48.7507 30.6792C49.034 30.6098 49.2332 30.3559 49.2333 30.0643V27.3333H51.1333V30.0643C51.1334 30.3559 51.3326 30.6098 51.6159 30.6792C54.3092 31.3322 56.2042 33.7454 56.2 36.5167ZM55.5666 26.0667H52.4V24.8H55.5666V26.0667ZM58.1 27.3333H56.8333V23.5333H58.1V27.3333Z" fill="#004C83"/>
<path d="M41 40.6333C41.3498 40.6333 41.6334 40.3498 41.6334 40C41.6334 39.6502 41.3498 39.3666 41 39.3666C40.6503 39.3666 40.3667 39.6502 40.3667 40C40.3667 40.3498 40.6503 40.6333 41 40.6333Z" fill="#004C83"/>
<path d="M41 48.8666C41.3498 48.8666 41.6334 48.5831 41.6334 48.2333C41.6334 47.8835 41.3498 47.6 41 47.6C40.6503 47.6 40.3667 47.8835 40.3667 48.2333C40.3667 48.5831 40.6503 48.8666 41 48.8666Z" fill="#004C83"/>
</svg>
